<?xml version="1.0" encoding="UTF-8" standalone="no"?>
<!-- Generator: Adobe Illustrator 16.0.0, SVG Export Plug-In . SVG Version: 6.00 Build 0)  -->
<!DOCTYPE svg  PUBLIC '-//W3C//DTD SVG 1.1//EN'  'http://www.w3.org/Graphics/SVG/1.1/DTD/svg11.dtd'>
<svg id="Layer_1" xmlns="http://www.w3.org/2000/svg" xml:space="preserve" height="115px" viewBox="0 0 115 115" width="115px" version="1.1" y="0px" x="0px" xmlns:xlink="http://www.w3.org/1999/xlink" enable-background="new 0 0 115 115">
<g fill="#2E72B8">
	<path d="m109.19 90.524l-4.481-24.003c1.105-1.596 1.688-2.787 1.761-2.942 0.123-0.258 0.168-0.544 0.135-0.826l-3.676-30.009c-0.001-0.006-0.004-0.011-0.005-0.017-0.017-0.126-0.054-0.246-0.101-0.363-0.007-0.015-0.007-0.032-0.014-0.047-0.014-0.03-0.034-0.064-0.048-0.095-0.006-0.01-0.01-0.02-0.015-0.028-1.281-2.706-6.27-7.761-14.658-8.872v-2.91c0.571-0.541 0.918-1.198 0.918-2.012v-5.683c0-0.117-0.017-0.23-0.042-0.34 0.015-0.115 0.042-0.226 0.042-0.349 0-3.554-8.541-4.332-11.832-4.332-5.199 0-10.809 1.656-10.809 4.332 0 0.123 0.027 0.233 0.042 0.351-0.025 0.109-0.042 0.222-0.042 0.339v5.682c0 0.585 0.187 1.085 0.489 1.525-2.237-0.237-4.539-0.491-4.853-0.55-0.451-0.111-0.844-0.025-1.382 0.186-0.909-2.107-2.982-3.598-5.421-3.598-1.646 0-3.134 0.68-4.209 1.767-0.037-0.038-0.059-0.087-0.1-0.121-0.047-0.039-0.102-0.062-0.152-0.095v-1.95c0.935-0.616 1.531-1.426 1.531-2.506v-6.004c0-0.115-0.017-0.229-0.042-0.339 0.015-0.116 0.042-0.228 0.042-0.351 0-3.554-8.541-4.332-11.834-4.332-5.199 0-10.811 1.656-10.811 4.332 0 0.22 0.029 0.427 0.075 0.626-0.045 0.142-0.075 0.29-0.075 0.446v5.622c0 0.596 0.192 1.104 0.506 1.55v2.674c-4.371 0.078-7.43 0.375-9.059 0.896-3.686 1.179-7.23 2.89-8.205 7.388-0.771 3.543-3.285 23.146-3.393 23.979-0.064 0.504 0.131 1.007 0.52 1.336 0.1 0.084 0.221 0.187 0.352 0.297l-4.533 26.508c-0.004 0.021-0.003 0.042-0.005 0.062-0.006 0.041-0.009 0.081-0.011 0.121-0.001 0.023-0.006 0.046-0.006 0.069v10.564c0 0.353 0.123 0.693 0.35 0.964 0.213 0.253 5.359 6.2 19.521 6.2 14.422 0 18.057-7.518 18.205-7.837 0.09-0.197 0.137-0.412 0.137-0.629v-10.792c0-0.093-0.008-0.185-0.025-0.275l-2.758-14.754c0.6-0.255 1.195-0.525 1.786-0.808 1.427 0.936 3.358 2.533 5.821 4.838 1.762 1.648 3.738 2.474 5.922 2.474 2.412 0 5.074-1.007 7.977-3.026 0.448-0.312 1.35-0.619 2.378-0.891 1.157 1.609 2.783 3.446 4.82 5.211l-3.944 23.674c-0.014 0.081-0.021 0.163-0.021 0.246v10.869c0 0.276 0.076 0.548 0.221 0.783 0.205 0.336 5.23 8.219 22.561 8.219 17.65 0 20.332-9.749 20.438-10.163 0.031-0.121 0.047-0.245 0.047-0.37v-11.64c0-0.093-0.01-0.185-0.03-0.276zm-92.338-66.615c0.001 0.002 0.002 0.003 0.004 0.004 0.385 0.26 9.488 6.353 16.664 6.445 0.1 0.001 0.197 0.002 0.295 0.002 2.048 0 3.944-0.273 5.684-0.577-0.295 0.117-0.587 0.236-0.875 0.356-1.777 0.738-3.457 1.422-6.621 1.289-5.021-0.233-13.095-4.629-15.896-6.238 0.187-0.468 0.432-0.892 0.745-1.281zm37.202 7.383c-0.076-0.14-0.16-0.277-0.284-0.392-0.098-0.091-0.538-0.465-1.408-0.88l-0.029-0.942c1.131 0.263 2.231 0.373 3.1 0.373 0.801 0 1.745-0.172 2.693-0.412v2.299c-0.201 0.076-0.403 0.153-0.596 0.228-0.584 0.226-1.371 0.53-1.691 0.571-0.318-0.107-1.106-0.501-1.785-0.845zm7.071-3.207c0.652-0.245 1.214-0.474 1.584-0.632l3.992 0.864c-1.71 1.033-2.7 1.835-2.809 1.925-0.201 0.167-0.346 0.384-0.437 0.623-0.752-0.281-1.551-0.438-2.331-0.359v-2.421zm24.875-12.827v3.02c-0.465 0.492-3.039 1.455-8.373 1.455-5.287 0-7.822-0.958-8.268-1.445v-3.019c2.426 0.896 5.824 1.092 8.268 1.092 2.477-0.001 5.923-0.197 8.373-1.103zm-17.555 15.52c1.883 1.952 6.835 5.871 16.316 5.871 0.076 0 0.154-0.001 0.23-0.001 8.423-0.056 12.36-2.702 14.092-4.563 0.264 0.309 0.485 0.601 0.655 0.862-0.828 1.146-3.979 4.146-14.185 4.146-0.184 0-0.369-0.001-0.557-0.003-11.644-0.12-16.246-4.51-17.36-5.816 0.25-0.157 0.514-0.321 0.809-0.496zm28.446-0.738c-1.189 1.284-4.354 3.559-11.918 3.608-0.07 0.001-0.141 0.001-0.211 0.001-5.668 0-9.419-1.528-11.728-2.996 1.89 0.321 4.151 0.593 6.417 0.593h0.002c3.348 0 6.016-0.603 7.928-1.79 0.441-0.274 0.709-0.756 0.709-1.274v-1.825c3.821 0.593 6.767 2.124 8.801 3.683zm-11.801-2.754c-1.393 0.638-3.283 0.96-5.637 0.96h-0.002c-3.633 0-7.385-0.789-9.18-1.225v-5.085c2.316 0.646 5.206 0.796 7.355 0.796 2.182 0 5.118-0.152 7.463-0.808v5.362zm-7.922-16.59c4.094 0 7.264 0.822 8.488 1.452-0.938 0.512-3.48 1.212-8.029 1.212-4.492 0-6.996-0.691-7.922-1.198 1.078-0.605 3.715-1.466 7.463-1.466zm-15.479 11.661c0.969 0.138 3.306 0.393 5.582 0.631v2.384l-4.402-0.953c-0.312-0.066-0.641-0.032-0.932 0.098-1.197 0.538-4.701 1.935-6.506 1.935-1.916 0-5.924-0.779-6.078-3.19-0.059-0.887 0.078-1.541 0.279-2.017 1.121 1.344 2.873 2.668 4.932 2.915 2.408 0.286 4.957-0.848 6.484-1.524 0.218-0.097 0.472-0.209 0.641-0.279zm-6.496-3.393c1.187 0 2.204 0.711 2.665 1.726-0.978 0.339-2.037 0.595-2.937 0.491-0.783-0.094-1.504-0.508-2.095-0.987 0.529-0.743 1.389-1.23 2.367-1.23zm-7.461-0.293c-0.464 0.557-0.91 1.322-1.168 2.342-1.619 0.592-3.41 0.905-5.365 0.905h-0.002c-3.488 0-6.607-0.96-8.072-1.493v-3.953c2.377 0.75 5.485 0.92 7.764 0.92 1.994 0 4.616-0.129 6.844-0.65v1.929zm-6.843-7.975c2.477 0 5.924-0.196 8.375-1.104v3.343c-0.465 0.493-3.039 1.456-8.375 1.456-5.289 0-7.822-0.959-8.27-1.446v-3.341c2.427 0.897 5.825 1.092 8.27 1.092zm-0.459-5.664c4.096 0 7.266 0.822 8.49 1.452-0.939 0.512-3.482 1.212-8.031 1.212-4.49 0-6.994-0.691-7.922-1.198 1.08-0.605 3.717-1.466 7.463-1.466zm-18.45 16.004c1.318-0.421 4.182-0.681 8.145-0.754v1.162c0 0.589 0.346 1.123 0.881 1.366 0.189 0.086 4.715 2.107 10.191 2.107h0.002c1.66 0 3.227-0.201 4.703-0.571 0.275 0.221 0.539 0.439 0.789 0.654 0.171 0.452 0.404 0.859 0.68 1.23-2.162-0.537-4.59-0.094-7.111 0.368-2.119 0.388-4.297 0.784-6.701 0.759-5.078-0.065-11.717-3.869-14.112-5.35 0.715-0.337 1.55-0.656 2.533-0.971zm3.674 71.631c-10.682 0-15.592-3.643-16.871-4.788v-6.807c2.771 1.79 7.874 4.03 16.105 4.03 8.232 0 13.337-2.24 16.107-4.03v5.745c-0.7 1.138-4.274 5.85-15.341 5.85zm15.342-16.12v0.768c-1.254 1.146-6.035 4.788-16.107 4.788-9.786 0-14.579-3.44-15.994-4.687l4.11-24.021c4.715 3.879 12.891 10.372 15.519 10.999 0.316 0.075 0.68 0.112 1.109 0.112 1.755 0 5.104-0.729 8.735-2.02l2.628 14.061zm27.338-13.255c0.22-0.034 0.438-0.068 0.637-0.095 0.82-0.109 1.396-0.864 1.287-1.686s-0.867-1.408-1.686-1.287c-0.92 0.123-5.605 0.806-7.613 2.202-2.693 1.872-6.666 3.992-10.09 0.792-5.725-5.359-8.596-7.074-10.928-6.53-0.807 0.186-1.312 0.99-1.127 1.797 0.047 0.203 0.133 0.387 0.247 0.546-3.745 1.514-7.467 2.476-9.427 2.476h-0.002c-0.273 0-0.393-0.025-0.412-0.03-1.912-0.456-10.678-7.326-16.672-12.36 0.421-3.263 2.015-15.499 2.878-20.858 3.515 1.972 11.166 5.923 16.437 6.167 0.334 0.016 0.654 0.023 0.963 0.023 3.248 0 5.205-0.813 6.949-1.539 1.596-0.664 2.975-1.237 5.326-1.237 0.831 0 1.566 0.045 2.225 0.114 1.322 0.142 3.671 1.322 5.258 2.123 1.529 0.773 2.293 1.148 2.914 1.217 0.883 0.091 1.869-0.281 3.113-0.763 0.904-0.351 1.93-0.747 2.787-0.876 0.932-0.137 2.734 1.047 3.666 1.89 0.287 0.261 0.648 0.39 1.01 0.39 0.406 0 0.814-0.165 1.109-0.491 0.056-0.062 0.078-0.138 0.122-0.204 2.771 2.168 8.146 4.921 17.661 5.02 0.199 0.002 0.395 0.003 0.59 0.003 8.158 0 12.509-1.806 14.813-3.559l3.2 26.121c-1.045 1.92-6.361 10.72-15.986 10.72-8.575-0.002-15.725-5.742-19.25-10.086zm19.25 13.084c6.718 0 11.552-3.452 14.648-6.772l3.984 21.335v0.163c-1.003 1.383-5.752 6.924-17.484 6.924-11.164 0-17.726-4.133-19.656-5.557l3.532-21.191c4.07 2.856 9.21 5.098 14.982 5.098zm1.148 33.594c-13.607 0-18.717-5.197-19.781-6.494v-7.471c3.299 2.022 9.855 5.022 19.781 5.022 9.104 0 14.561-3.102 17.484-5.603v6.786c-0.38 1.07-3.31 7.76-17.488 7.76z"/>
	<path d="m70.717 57.2c-0.745-0.911-2.551-2.199-4.367-3.071v-10.314c0.182 0.146 0.363 0.295 0.541 0.444 0.283 0.237 0.625 0.354 0.967 0.354 0.428 0 0.852-0.182 1.148-0.533 0.533-0.633 0.453-1.579-0.18-2.113-1.561-1.317-4.42-3.548-6.033-3.684-0.816-0.066-1.859 0.133-3.182 0.387-1.432 0.274-3.062 0.586-4.352 0.527-1.436-0.062-3.443-1.258-4.641-1.973-0.861-0.513-1.336-0.796-1.826-0.878-6.068-1.016-7.076 0.105-7.408 0.474-0.557 0.614-0.508 1.563 0.105 2.118 0.547 0.494 1.359 0.513 1.924 0.074 0.691-0.182 3.002-0.013 4.773 0.274 0.178 0.087 0.572 0.322 0.895 0.515 0.057 0.034 0.122 0.072 0.182 0.107v12.833c-0.53-0.388-1.069-0.757-1.617-1.051-2.607-1.401-7.816-1.05-8.404-1.007-0.826 0.063-1.443 0.784-1.381 1.61 0.062 0.825 0.775 1.446 1.609 1.382 1.873-0.144 5.363-0.091 6.756 0.657 0.672 0.361 1.406 0.923 2.182 1.518 1.703 1.305 3.635 2.782 5.93 2.879 1.891 0.086 4.072-0.821 6.004-1.613 0.971-0.398 2.297-0.942 2.746-0.942h0.01c1.186 0.021 4.488 1.937 5.299 2.926 0.297 0.362 0.727 0.55 1.162 0.55 0.334 0 0.67-0.111 0.949-0.34 0.64-0.524 0.734-1.469 0.209-2.11zm-18.453-2.282v-13.444c0.93 0.387 1.908 0.68 2.865 0.722 0.971 0.039 1.992-0.068 2.996-0.222v12.805c-1.319 0.521-2.729 1.008-3.662 0.954-0.709-0.03-1.45-0.357-2.199-0.815zm8.861-1.314v-12.166c0.599-0.107 1.133-0.188 1.387-0.169 0.168 0.033 0.468 0.183 0.838 0.401v11.52c-0.064-0.005-0.133-0.015-0.195-0.016-0.603 0.004-1.277 0.174-2.03 0.43z"/>
</g>
</svg>
