<?xml version="1.0" encoding="UTF-8" standalone="no"?>
<!-- Generator: Adobe Illustrator 16.0.0, SVG Export Plug-In . SVG Version: 6.00 Build 0)  -->
<!DOCTYPE svg  PUBLIC '-//W3C//DTD SVG 1.1//EN'  'http://www.w3.org/Graphics/SVG/1.1/DTD/svg11.dtd'>
<svg id="Layer_1" xmlns="http://www.w3.org/2000/svg" xml:space="preserve" height="115px" viewBox="0 0 115 115" width="115px" version="1.1" y="0px" x="0px" xmlns:xlink="http://www.w3.org/1999/xlink" enable-background="new 0 0 115 115">
<path d="m112.44 32.247c-0.094-0.259-2.337-6.324-8.242-6.357l-16.8-3.147-1.018-0.61c-1.842-1.106-3.73-2.462-4.039-2.9-0.229-0.332-0.562-0.576-0.974-0.759 0.005-0.445-0.112-1-0.542-1.597-0.948-1.319-2.536-3.246-4.371-4.345-0.229-0.71-0.727-1.411-1.645-1.897-2.092-1.107-9.613-4.721-18.541-4.721-3.365 0-6.554 0.532-9.508 1.569-0.688 0.041-1.339 0.212-1.936 0.525-0.548 0.288-3.788 2.438-4.897 4.646-1.04 0.156-1.821 0.48-2.322 0.763l-9.638-1.806-0.207-0.023c-6.752-0.322-12.186 1.547-16.186 5.532-5.193 5.176-6.787 12.881-6.549 18.365 0.127 2.897-0.6 7.54-1.303 12.029-1.249 8.008-1.884 12.63-0.353 14.509 0.445 0.545 1.066 0.862 1.75 0.895 0.374 0.022 1.648 0.27 3.634 0.695-0.219 5.611-0.429 19.159 2.396 23.024 0.197 0.271 0.48 0.468 0.805 0.559l77.521 21.833c0.135 0.038 0.271 0.057 0.406 0.057 0.146 0 0.289-0.023 0.428-0.065 0.048-0.015 0.091-0.041 0.138-0.061 0.074-0.03 0.15-0.054 0.22-0.097l21.145-13c0.443-0.272 0.715-0.756 0.715-1.277v-61.83c0.01-0.173-0.02-0.344-0.08-0.506zm-29.014-8.427c-0.41 0.258-0.945 0.372-1.658 0.372-0.189 0-0.361-0.007-0.512-0.013-0.098-0.004-0.186-0.007-0.268-0.009-0.669-0.215-2.369-1.326-3.522-2.266 0.53-0.229 1.068-0.498 1.56-0.764 0.127-0.007 0.254-0.018 0.381-0.018 0.336 0 0.543 0.029 0.654 0.052 0.703 0.83 2.187 1.879 3.365 2.646zm-36.674-8.691c0.51-0.501 1.046-1.026 1.542-1.511 0.53 0.11 1.06 0.182 1.552 0.182l0.195-0.004c0.166-0.006 0.523-0.016 1.029-0.016 2.486 0 10.977 0.254 15.875 3.513l0.088 0.054c1.953 1.116 2.545 1.188 2.74 1.213 0.046 0.005 0.096 0.005 0.143 0.008 0.299 0.332 0.671 0.712 1.091 1.105l-24.255-4.544zm31.332 3.085c-1.021 0.127-2.184 0.396-3.081 0.853-0.505-0.351-1.155-0.865-1.772-1.424 0.949-0.536 1.822-1.238 2.465-1.974 0.755 0.614 1.586 1.491 2.388 2.545zm-4.676-4.927c0.152 0.08 0.207 0.137 0.223 0.188-0.727 1.007-2.482 2.11-3.418 2.11l-0.023-0.001c-0.271-0.096-0.992-0.458-1.627-0.818-5.45-3.596-14.043-3.986-17.493-3.986-0.559 0-0.953 0.011-1.225 0.02-0.551 0-1.354-0.177-2.174-0.463 2.656-0.945 5.543-1.423 8.6-1.423 8.448 0 15.758 3.643 17.137 4.373zm-28.992-1.295c0.181 0.188 0.414 0.369 0.714 0.524-0.24 0.236-0.472 0.464-0.692 0.681-0.281-0.124-0.588-0.239-0.941-0.333 0.276-0.286 0.591-0.585 0.919-0.872zm-37.725 35.987c0.725-4.635 1.475-9.428 1.336-12.624-0.203-4.624 1.162-11.617 5.668-16.11 3.359-3.347 8.016-4.916 13.826-4.664l47.199 8.841c1.792 1.822 4.973 3.748 6.141 3.748 0.078 0 0.17 0.004 0.277 0.008 0.184 0.008 0.396 0.016 0.629 0.016 2.072 0 3.387-0.742 4.231-1.659l12.142 2.274c-8.975 5.453-9.727 18.157-9.754 18.683-0.076 1.176-1.078 17.041-1.383 32.574-0.091-0.043-0.188-0.078-0.289-0.103-3.37-0.817-17.841-4.322-33.681-8.107l0.067-1.145c0.201-3.38-1.73-5.685-4.92-5.873-0.172-0.011-0.34-0.016-0.508-0.016-2.97 0-4.851 1.638-5.286 4.498-17.336-4.114-33.741-7.928-36.767-8.358-0.56-1.558 0.416-7.795 1.072-11.983zm43.416 21.554l-0.211 3.576c-0.137 2.331-1.227 2.501-2.406 2.437-1.172-0.069-2.543-0.598-2.418-2.721l0.211-3.577c0.104-1.746 0.773-2.427 2.391-2.427 0.109 0 0.219 0.004 0.33 0.01 0.969 0.058 2.24 0.399 2.103 2.702zm-38.376-5.267c6.749 1.502 17.917 4.115 30.423 7.084l-0.076 1.299c-0.197 3.327 1.906 5.695 5.234 5.892 0.154 0.01 0.303 0.014 0.447 0.014 2.824 0 4.667-1.74 5.053-4.665 11.383 2.719 23.132 5.549 33.195 7.989 0.119 0.028 0.236 0.042 0.354 0.042 0.212 0 0.41-0.058 0.597-0.141-0.134 9.532 0.034 18.597 0.885 23.674l-74.517-20.984c-1.617-3.083-1.85-12.96-1.595-20.2zm97.799 29.481l-18.695 11.494c-1.871-10.065-0.512-42.007 0.549-58.577 0.006-0.119 0.721-11.922 8.562-16.446 1.464-0.845 2.818-1.278 4.035-1.316l2.125 0.398c2.057 0.902 3.124 3.044 3.424 3.741v60.707z" fill="#2E72B8"/>
</svg>
