<?xml version="1.0" encoding="UTF-8" standalone="no"?>
<!-- Generator: Adobe Illustrator 16.0.0, SVG Export Plug-In . SVG Version: 6.00 Build 0)  -->
<!DOCTYPE svg  PUBLIC '-//W3C//DTD SVG 1.1//EN'  'http://www.w3.org/Graphics/SVG/1.1/DTD/svg11.dtd'>
<svg id="Layer_1" xmlns="http://www.w3.org/2000/svg" xml:space="preserve" height="115px" viewBox="0 0 115 115" width="115px" version="1.1" y="0px" x="0px" xmlns:xlink="http://www.w3.org/1999/xlink" enable-background="new 0 0 115 115">
<path d="m113.15 37.406c-0.522-4.313-3.356-12.171-10.344-13.316-0.213-0.193-0.483-0.328-0.789-0.373l-14.175-2.077v-17.806c0-0.69-0.473-1.292-1.143-1.457l-2.488-0.61c-0.426-0.102-0.875-0.017-1.23 0.237-0.355 0.255-0.582 0.651-0.621 1.088l-0.008 0.091-9.473-2.332c-0.445-0.11-0.92-0.01-1.283 0.275-0.363 0.284-0.576 0.72-0.576 1.181v6.115c0 0.521 0.271 1.005 0.715 1.278l8.148 5.007-0.029 5.763-53.748-7.876c-0.062-0.009-0.125-0.014-0.188-0.016-0.199-0.004-0.396-0.006-0.592-0.006-17.615 0-23.35 15.872-23.406 16.034-0.055 0.158-0.084 0.325-0.084 0.493v38.262c0 0.421 0.178 0.822 0.486 1.105 1.619 1.483 5.176 1.493 6.33 1.452l29.305 7.402v29.41c0 0.636 0.4 1.202 1 1.414l16.857 5.963c0.014 0.005 0.028 0.003 0.042 0.007 0.146 0.047 0.297 0.079 0.458 0.079h0.006c0.113 0 0.223-0.016 0.329-0.04 0.028-0.007 0.054-0.018 0.081-0.025 0.081-0.023 0.16-0.052 0.235-0.089 0.014-0.007 0.028-0.009 0.042-0.016l14.371-7.491c0.496-0.259 0.807-0.771 0.807-1.33v-19.224l8.07 2.038c0.123 0.031 0.246 0.046 0.367 0.046 0.012 0 0.022-0.005 0.034-0.006 0.014 0.001 0.026 0.006 0.04 0.006 0.219 0 0.436-0.047 0.639-0.143l30.962-14.564c0.525-0.247 0.861-0.776 0.861-1.357v-34.4c0-0.061 0-0.12-0.01-0.18zm-33.95 8.54v38.696l-3.221-0.813v-38.89c4.785-14.091 15.195-18.755 17.094-19.501l1.311 0.192c-8.967 4.474-15.184 16.504-15.184 20.316zm-25.853 29.659c0-0.479 0.391-0.87 0.871-0.87 0.479 0 0.869 0.391 0.869 0.87s-0.391 0.868-0.869 0.868c-0.481 0.001-0.871-0.389-0.871-0.868zm2.948 3.252c1.074-0.688 1.792-1.885 1.792-3.252 0-2.134-1.736-3.87-3.869-3.87-2.135 0-3.871 1.736-3.871 3.87 0 0.685 0.194 1.319 0.508 1.878l-21.93-5.539c0.656-0.693 1.066-1.623 1.066-2.651 0-2.134-1.736-3.869-3.871-3.869-2.133 0-3.869 1.735-3.869 3.869 0 0.35 0.062 0.682 0.148 1.004l-8.256-2.085c0.719-0.703 1.168-1.681 1.168-2.763 0-2.134-1.736-3.869-3.869-3.869-0.3 0-0.589 0.042-0.869 0.106v-31.624c4.734-12.306 19.17-13.556 19.35-13.569 0.24-0.018 0.459-0.097 0.653-0.212l57.362 8.406c-4.491 2.761-11.216 8.519-14.883 19.534-0.051 0.152-0.076 0.312-0.076 0.474v31.99c-0.381-0.126-0.78-0.211-1.203-0.211-2.135 0-3.869 1.736-3.869 3.87 0 0.542 0.114 1.058 0.316 1.526l-11.928-3.013zm-31.044-9.564c0-0.479 0.391-0.869 0.869-0.869 0.48 0 0.871 0.39 0.871 0.869s-0.391 0.869-0.871 0.869c-0.478 0-0.869-0.39-0.869-0.869zm-14.678-3.844c0-0.479 0.391-0.869 0.869-0.869s0.869 0.39 0.869 0.869-0.391 0.87-0.869 0.87-0.869-0.39-0.869-0.87zm60.334 14.895c0-0.479 0.389-0.87 0.869-0.87 0.479 0 0.869 0.391 0.869 0.87s-0.391 0.87-0.869 0.87c-0.48 0-0.869-0.391-0.869-0.87zm11.268-67.751l-8.152-5.01v-3.362l9.314 2.293c0.422 0.104 0.873 0.019 1.23-0.235 0.104-0.074 0.197-0.161 0.277-0.257v15.178l-1.991-0.292 0.036-7.029c0.003-0.525-0.269-1.012-0.714-1.286zm-77.336 16.777c0.636-1.632 4.685-10.919 15.369-13.26-4.704 2.158-9.922 6.073-12.541 13.157-0.062 0.167-0.094 0.343-0.094 0.521v37.13c-1.036-0.035-2.094-0.174-2.734-0.403v-37.145zm36.121 48.708l13.742 3.471 0.107 29.021-13.85-4.899v-27.592zm28.228 26.212l-11.38 5.933-0.104-27.917 11.483 2.9v19.087zm37.552-51.228c-0.105-0.148-0.228-0.283-0.383-0.387-0.418-0.276-0.949-0.328-1.412-0.132l-19.184 8.084c-0.151 0.063-0.285 0.154-0.404 0.26v-13.27c0.473-6.002 9.281-16.821 15.43-17.367 1.148-0.099 2.102 0.192 2.928 0.896 2.154 1.839 2.908 6.063 3.025 7.604v14.312zm-2.71 3.124v4.863l-16.182 7.448v-5.491l16.182-6.82zm-18.674 15.767c0.058 0.051 0.111 0.106 0.178 0.148 0.246 0.157 0.527 0.237 0.811 0.237 0.213 0 0.428-0.046 0.627-0.138l19.182-8.829c0.242-0.11 0.438-0.286 0.586-0.494v9.765l-21.383 10.06v-10.749zm24.804-0.92l-0.422 0.198v-32.537c0-0.033-0.002-0.066-0.004-0.101-0.018-0.271-0.484-6.659-4.066-9.724-1.451-1.241-3.178-1.784-5.148-1.608-6.645 0.59-17.543 11.523-18.16 20.193-0.002 0.035-0.004 0.071-0.004 0.106v36.552l-0.156 0.075v-38.24c0-3.232 7.867-17.581 17.512-18.915 0.459-0.063 0.91-0.096 1.342-0.096 7.42 0 8.959 9.674 9.107 10.748v33.349z" fill="#2E72B8"/>
</svg>
