<?xml version="1.0" encoding="UTF-8" standalone="no"?>
<!-- Generator: Adobe Illustrator 16.0.0, SVG Export Plug-In . SVG Version: 6.00 Build 0)  -->
<!DOCTYPE svg  PUBLIC '-//W3C//DTD SVG 1.1//EN'  'http://www.w3.org/Graphics/SVG/1.1/DTD/svg11.dtd'>
<svg id="Layer_1" xmlns="http://www.w3.org/2000/svg" xml:space="preserve" height="115px" viewBox="0 0 115 115" width="115px" version="1.1" y="0px" x="0px" xmlns:xlink="http://www.w3.org/1999/xlink" enable-background="new 0 0 115 115">
<g fill="#2E72B8">
	<path d="m109.16 89.328l-12.516-12.521 8.033-8.031c0.902-0.908 0.902-2.385-0.004-3.293l-41.499-41.492c-0.705-0.705-1.385-0.783-2.941-0.961l-9.721-0.676-9.062-10.153c-0.727-0.728-1.543-0.862-2.674-0.979l-11.279-0.746-0.199 0.199c-0.321 0.108-0.622 0.278-0.869 0.525l-20.597 20.597c-0.441 0.44-0.684 1.025-0.684 1.648s0.242 1.208 0.682 1.646l15.111 15.11-3.32 3.32c-0.441 0.44-0.684 1.025-0.684 1.647 0 0.621 0.242 1.206 0.684 1.646l41.492 41.495c0.222 0.223 0.481 0.395 0.765 0.51l0.083 0.111 11.545 0.97 0.381 0.037c0.275 0.027 0.48 0.045 0.645 0.045 0.635 0 1.145-0.215 1.604-0.674l2.666-2.666 6.158 6.158c0.1 0.1 0.209 0.186 0.322 0.266l0.059 0.307 12.057 1.105c0.342 0.027 0.598 0.045 0.799 0.045 0.732 0 1.283-0.223 1.785-0.723l11.178-11.18c0.9-0.905 0.9-2.382-0.01-3.292zm-4.53-0.297l-7.405-0.918-10.803-10.801 7.404 0.92 10.804 10.799zm-20.018 11.169l-12.047-12.042 10.229-10.228 12.047 12.045-10.229 10.225zm9.367-24.971l-7.549-0.938 6.518-6.516c0.042-0.043 0.072-0.092 0.109-0.135l7.572 0.939-6.651 6.65zm-32.859-49.056l39.368 39.366-7.433-0.922c-0.038-0.045-0.067-0.092-0.109-0.135l-38.877-38.874 5.893 0.408c0.426 0.049 0.941 0.109 1.156 0.157zm-21.777-11.838l8.239 9.232-2.743 2.743-12.508-12.508 6.197 0.409c0.53 0.055 0.737 0.1 0.815 0.124zm-30.91 19.111l19.65-19.649 14.635 14.636-19.649 19.649-14.636-14.636zm41.373-7.86l40.545 40.544-29.584 29.583-40.543-40.543 29.582-29.584zm22.443 71.373c-0.018-0.002-0.037-0.004-0.059-0.008l-7.763-0.656 6.017-6.016 4.242 4.242-2.437 2.438zm23.777 4.561c-0.104-0.006-0.225-0.018-0.363-0.029l-7.414-0.678 9.188-9.189c0.129-0.129 0.234-0.27 0.326-0.418l7.632 0.947-9.374 9.37z"/>
	<path d="m23.229 30.997c-1.236-1.239-3.395-1.241-4.643 0.001-1.275 1.279-1.275 3.36 0.002 4.639l4.201 4.199c0.619 0.62 1.443 0.961 2.32 0.961 0.875 0 1.699-0.341 2.318-0.961 1.279-1.278 1.279-3.359 0-4.64l-4.198-4.199zm2.079 6.717c-0.137 0.136-0.26 0.134-0.396 0l-4.199-4.198c-0.109-0.11-0.109-0.289-0.002-0.397 0.068-0.068 0.146-0.083 0.199-0.083 0.055 0 0.131 0.015 0.199 0.082l4.199 4.198c0.109 0.11 0.109 0.289 0 0.398z"/>
	<path d="m34.472 28.153l-4.199-4.199c-1.24-1.241-3.402-1.239-4.641 0-0.619 0.619-0.961 1.443-0.961 2.32 0 0.876 0.342 1.7 0.961 2.319l4.201 4.201c0.619 0.618 1.443 0.959 2.318 0.959 0.877 0 1.699-0.341 2.32-0.961 1.28-1.279 1.278-3.361 0.001-4.639zm-2.121 2.518c-0.137 0.137-0.262 0.136-0.396 0.001l-4.201-4.2c-0.066-0.068-0.082-0.146-0.082-0.198 0-0.054 0.016-0.131 0.082-0.199 0.068-0.067 0.146-0.082 0.199-0.082s0.131 0.015 0.199 0.082l4.199 4.199c0.109 0.109 0.109 0.289 0 0.397z"/>
	<path d="m77.208 72.133c2.986 0 5.416-2.43 5.416-5.418 0-2.986-2.43-5.416-5.416-5.416s-5.416 2.43-5.416 5.416c0 2.988 2.43 5.418 5.416 5.418zm0-7.834c1.332 0 2.416 1.084 2.416 2.416 0 1.334-1.084 2.418-2.416 2.418s-2.416-1.084-2.416-2.418c0-1.332 1.084-2.416 2.416-2.416z"/>
</g>
</svg>
