<?xml version="1.0" encoding="UTF-8" standalone="no"?>
<!-- Generator: Adobe Illustrator 16.0.0, SVG Export Plug-In . SVG Version: 6.00 Build 0)  -->
<!DOCTYPE svg  PUBLIC '-//W3C//DTD SVG 1.1//EN'  'http://www.w3.org/Graphics/SVG/1.1/DTD/svg11.dtd'>
<svg id="Layer_1" xmlns="http://www.w3.org/2000/svg" xml:space="preserve" height="55px" viewBox="0 0 55 55" width="55px" version="1.1" y="0px" x="0px" xmlns:xlink="http://www.w3.org/1999/xlink" enable-background="new 0 0 55 55">
	<circle cy="27.499" cx="27.5" r="27.5" fill="#3C3C3B"/>
		<path d="m36.212 12.328c-0.733 0-1.919 0.124-2.714 0.872-1.054 0.992-1.796 2.586-2.582 4.28-0.965 2.075-2.057 4.428-3.989 6.28-3.254 3.123-6.54 3.555-10.021 4.335-0.314 0.069-0.629 0.14-0.945 0.212-0.375 0.089-0.733 0.168-1.075 0.24-3.05 0.677-4.077 1.41-4.425 3.384-0.055 0.312 0.211 1.586 0.188 1.88 0.888-0.506 1.949-0.834 2.917-1.093 0.273-0.07 0.603-0.156 0.975-0.25 3.411-0.872 10.508-2.688 13.918-5.773 2.612-2.367 4.33-5.831 5.709-8.617 0.641-1.294 1.195-2.413 1.754-3.266 0.389-0.59 1.191-1.564 1.568-1.956-0.176-0.026-1.088-0.528-1.278-0.528z" fill="#CA9E67"/>
		<path d="m43.186 14.667c-0.353-1.595-1.767-2.507-3.328-2.572-1.31-0.055-2.519 0.428-3.451 1.336-0.883 0.856-1.479 1.989-1.98 3.097-0.27 0.595-0.512 1.203-0.752 1.809-0.103 0.259-0.204 0.518-0.307 0.777-0.049 0.123-0.099 0.245-0.148 0.366-0.006 0.011-0.029 0.066-0.041 0.097-0.026 0.06-0.053 0.121-0.079 0.183-0.609 1.39-1.37 2.707-2.284 3.919-0.949 1.26-2.108 2.406-3.401 3.306-1.357 0.946-2.921 1.61-4.455 2.213-1.666 0.651-3.374 1.189-5.103 1.649-1.208 0.318-2.436 0.537-3.647 0.84-1.126 0.281-2.228 0.68-3.146 1.406-0.935 0.74-1.366 1.918-1.285 3.088 0.064 0.917 0.347 1.85 0.907 2.584 0.552 0.721 1.26 1.2 2.096 1.539 1.138 0.461 2.431 0.525 3.672 0.383 0.365 0.25 0.85 0.257 1.274 0.054 0.181-0.087 0.361-0.171 0.544-0.253 0.02-0.006 0.121-0.051 0.166-0.07 0.065-0.027 0.132-0.055 0.196-0.08 0.404-0.163 0.814-0.312 1.229-0.451 0.802-0.271 1.617-0.502 2.435-0.724 1.646-0.444 3.308-0.83 4.935-1.338 1.623-0.506 3.328-1.116 4.721-2.114 1.34-0.959 2.357-2.236 3.148-3.671 0.497-0.899 0.906-1.846 1.327-2.781 0.05-0.114 0.103-0.226 0.153-0.338 0.044-0.103 0.085-0.206 0.129-0.308-0.016 0.037-0.003 0.01 0.034-0.08 0.125-0.283 0.261-0.562 0.402-0.838 0.278-0.546 0.589-1.074 0.911-1.595 1.25-2.009 2.732-3.874 3.738-6.03 0.096-0.209 0.145-0.428 0.141-0.644 0.202-0.043 0.387-0.176 0.522-0.359 0.89-1.204 1.039-2.976 0.727-4.4z" fill="#E67373"/>
		<path d="m37.395 16.561c-0.639 0.193-1.326 0.07-1.938 0.388-0.747 0.381-0.567 1.314-0.614 1.998-0.008 0.123-0.018 0.193-0.051 0.318-0.018 0.063-0.036 0.096-0.08 0.145-0.15 0.162-0.525 0.27-0.768 0.373-0.605 0.257-0.862 0.698-0.938 1.339-0.051 0.415 0 0.832 0.014 1.249 0.007 0.194 0 0.383-0.049 0.573-0.021 0.082-0.023 0.069-0.063 0.135 0.001-0.002-0.026 0.011-0.062 0.031-0.046 0.028-0.144 0.061-0.255 0.103-0.152 0.059-0.301 0.122-0.442 0.204-0.306 0.171-0.575 0.451-0.743 0.758-0.252 0.461-0.215 1.13-0.279 1.505-0.008 0.052-0.023 0.104-0.039 0.155-0.001 0.007-0.004 0.015-0.006 0.02-0.004 0.005-0.012 0.018-0.023 0.04-0.031 0.055-0.019 0.043-0.137 0.111-0.257 0.148-0.608 0.145-0.889 0.251-0.696 0.27-1.051 0.875-1.209 1.58-0.027 0.123-0.052 0.248-0.09 0.368-0.004 0.011-0.006 0.02-0.008 0.027-0.004 0.004-0.014 0.017-0.029 0.044 0.043-0.073-0.045 0.009-0.021 0-0.178 0.1-0.495 0.036-0.682-0.004-0.655-0.14-1.182-0.087-1.607 0.488-0.343 0.461-0.41 1.045-0.704 1.488 0.018-0.031-0.026 0.013-0.031 0.025-0.022 0.012-0.052 0.023-0.061 0.028-0.057 0.009-0.127-0.011-0.229-0.036-0.328-0.09-0.611-0.32-0.928-0.441-0.747-0.282-1.512 0.15-1.995 0.693-0.462 0.521-0.99 0.963-1.687 1.119-0.628 0.137-1.075-0.539-1.686-0.584-0.753-0.055-1.233 0.584-1.789 0.976-0.123 0.085-0.259 0.161-0.398 0.214-0.118 0.047-0.01 0.025-0.114 0.029 0.093-0.004-0.079-0.029-0.088-0.031-0.321-0.106-0.599-0.223-0.94-0.252-1.206-0.108-1.425 1.227-1.984 1.962-0.182 0.237-0.037 0.61 0.194 0.747 0.281 0.166 0.567 0.039 0.748-0.195 0.287-0.379 0.483-1.008 0.723-1.295 0.094-0.109 0.141-0.156 0.318-0.131 0.359 0.053 0.663 0.256 1.029 0.285 0.365 0.029 0.771-0.204 1.063-0.393 0.354-0.229 0.643-0.545 0.994-0.777 0.188-0.123 0.288-0.016 0.488 0.117 0.326 0.211 0.667 0.372 1.059 0.418 0.819 0.094 1.597-0.344 2.22-0.827 0.446-0.347 0.774-1.049 1.392-1.058 0.244-0.003 0.503 0.227 0.714 0.326 0.373 0.18 0.748 0.251 1.157 0.194 0.629-0.093 0.916-0.775 1.106-1.292 0.097-0.264 0.167-0.461 0.321-0.695 0.028-0.038 0.068-0.07 0.104-0.105-0.028 0.029 0.013 0.016 0.029 0.004h0.012c0.027 0.002 0.041 0.002 0.048 0.002 0.021 0.005 0.043 0.01 0.065 0.012 0.674 0.133 1.326 0.223 1.91-0.229 0.477-0.37 0.369-1.121 0.686-1.59 0.113-0.166 0.33-0.212 0.529-0.261 0.338-0.086 0.68-0.145 0.965-0.362 0.504-0.384 0.588-0.929 0.618-1.522 0.013-0.254 0.015-0.361 0.108-0.615 0.055-0.151 0.323-0.347 0.535-0.445 0.215-0.098 0.499-0.181 0.715-0.35 0.306-0.242 0.435-0.628 0.482-1.001 0.056-0.431 0.005-0.863-0.008-1.296-0.004-0.162-0.004-0.333 0.02-0.492 0.012-0.062 0.029-0.122 0.047-0.185-0.023 0.078 0.057-0.052 0.039-0.05 0.004-0.001 0.006-0.005 0.006-0.005 0.029-0.021 0.062-0.038 0.095-0.057 0.085-0.046 0.141-0.067 0.204-0.091 0.254-0.105 0.516-0.197 0.746-0.349 0.486-0.317 0.64-0.808 0.693-1.36 0.028-0.273 0.021-0.543 0.019-0.817-0.003-0.15-0.007-0.295 0.114-0.337 0.518-0.186 1.1-0.096 1.625-0.255 0.672-0.206 0.385-1.261-0.29-1.057z" fill="#BD1818"/>
		<path d="m45.16 21.268c-0.033-0.142-0.061-0.334-0.124-0.464-0.016-0.036-0.034-0.074-0.042-0.094-0.028-0.076-0.057-0.154-0.085-0.232-0.148-0.4-0.3-0.811-0.541-1.167-0.558-0.82-1.437-1.324-2.403-1.492-0.257-0.045-0.516-0.074-0.773-0.104-0.09-0.008-0.18-0.017-0.27-0.023 0.385 0.034-0.133-0.018-0.262-0.031-0.439-0.054-0.867-0.005-1.303 0.057-0.795 0.117-1.514 0.54-2.115 1.055-0.627 0.54-1.031 1.282-1.393 2.013-0.411 0.831-0.771 1.688-1.131 2.543-0.082 0.191-0.162 0.383-0.242 0.575-0.027 0.067-0.056 0.133-0.084 0.2 0.01-0.024-0.072 0.169-0.081 0.19-0.177 0.416-0.356 0.832-0.544 1.243-0.359 0.792-0.752 1.568-1.201 2.31-0.108 0.18-0.221 0.355-0.337 0.53-0.058 0.086-0.116 0.172-0.177 0.259-0.004 0.007-0.007 0.011-0.011 0.016-0.002 0.003-0.003 0.003-0.005 0.009-0.226 0.281-0.48 0.537-0.748 0.778-0.096 0.087-0.197 0.169-0.297 0.25-0.03 0.026-0.103 0.08-0.125 0.097-0.07 0.051-0.139 0.099-0.211 0.146-0.311 0.219-0.635 0.412-0.965 0.595-0.311 0.173-0.631 0.328-0.953 0.476-0.125 0.06-0.252 0.115-0.379 0.17-0.035 0.016-0.131 0.057-0.157 0.067-0.111 0.045-0.222 0.089-0.333 0.134-0.678 0.264-1.369 0.494-2.062 0.717-1.644 0.527-3.298 0.922-4.983 1.292-0.908 0.2-1.813 0.417-2.697 0.708-0.854 0.284-1.669 0.637-2.296 1.305-1.26 1.34-1.221 3.252-0.387 4.801 0.781 1.455 2.38 2.334 3.966 2.581 1.665 0.259 3.376 0.101 5.034-0.137 1.573-0.228 3.119-0.632 4.615-1.163 3.176-1.129 6.1-2.826 8.707-4.953 1.22-0.994 2.348-2.102 3.367-3.299 0.562-0.658 1.098-1.342 1.54-2.085 0.433-0.724 0.763-1.511 1.039-2.308 0.376-1.073 0.684-2.19 0.995-3.288 0.281-1.001 0.459-2.008 0.44-3.031 0.09-0.754 0.129-0.763 0.014-1.246z" fill="#CA9E67"/>
</svg>
