<?xml version="1.0" encoding="UTF-8" standalone="no"?>
<!-- Generator: Adobe Illustrator 16.0.0, SVG Export Plug-In . SVG Version: 6.00 Build 0)  -->
<!DOCTYPE svg  PUBLIC '-//W3C//DTD SVG 1.1//EN'  'http://www.w3.org/Graphics/SVG/1.1/DTD/svg11.dtd'>
<svg id="Layer_1" xmlns="http://www.w3.org/2000/svg" xml:space="preserve" height="55px" viewBox="0 0 55 55" width="55px" version="1.1" y="0px" x="0px" xmlns:xlink="http://www.w3.org/1999/xlink" enable-background="new 0 0 55 55">
	<circle cy="27.499" cx="27.5" r="27.5" fill="#3C3C3B"/>
		<path d="m45.042 37.769c0 0.991-0.802 1.795-1.794 1.795h-31.498c-0.991 0-1.794-0.804-1.794-1.795v-2.465c0-0.992 0.803-1.795 1.794-1.795h31.498c0.992 0 1.794 0.803 1.794 1.795v2.465z" fill="#DC8129"/>
		<path d="m47.635 31.487c0 1.441-1.168 2.607-2.606 2.607h-35.058c-1.438 0-2.606-1.166-2.606-2.607v-1.145c0-1.441 1.168-2.607 2.606-2.607h35.058c1.438 0 2.606 1.166 2.606 2.607v1.145z" fill="#683C11"/>
		<path d="m11.686 25.605s-2.808 0.44-3.688 1.219c-0.879 0.779 0.305 2.673 2.673 1.794 2.367-0.883 3.709-0.933 4.905-0.137 1.521 1.016 4.842 1.996 6.699 1.016s4.025-1.422 5.224-1.422c1.199 0 3.366 1.352 5.242 1.217s5.563-1.185 6.544-1.284c0.98-0.104 3.518 1.048 4.566 1.185 1.047 0.135 5.479 0.065 3.01-2.269-2.469-2.332-15.254-1.894-15.254-1.894l-19.921 0.575z" fill="#A4C738"/>
		<path d="m10.354 25.857h34.291c0.105-0.372 0.158-0.749 0.158-1.125 0-2.186-1.746-5.1-4.917-6.705-3.298-1.671-7.698-2.592-12.387-2.592s-9.088 0.92-12.387 2.592c-3.17 1.605-4.916 4.519-4.916 6.705 0 0.376 0.052 0.753 0.158 1.125z" fill="#DC8129"/>
		<path d="m32.185 24.23c-0.233 0-0.449-0.146-0.528-0.379l-0.223-0.668c-0.097-0.292 0.061-0.608 0.352-0.707 0.293-0.096 0.607 0.062 0.705 0.353l0.223 0.669c0.098 0.292-0.061 0.606-0.352 0.703-0.061 0.022-0.119 0.029-0.177 0.029z" fill="#fff"/>
		<path d="m14.129 24.009c-0.112 0-0.226-0.033-0.324-0.104-0.25-0.179-0.308-0.526-0.129-0.775l0.557-0.78c0.18-0.25 0.526-0.307 0.777-0.131 0.249 0.18 0.308 0.53 0.129 0.779l-0.557 0.778c-0.108 0.151-0.28 0.233-0.453 0.233z" fill="#fff"/>
		<path d="m28.177 23.786c-0.308 0-0.557-0.248-0.557-0.556v-0.89c0-0.308 0.249-0.558 0.557-0.558 0.307 0 0.557 0.25 0.557 0.558v0.89c-0.001 0.308-0.251 0.556-0.557 0.556z" fill="#fff"/>
		<path d="m19.269 23.34c-0.158 0-0.317-0.065-0.427-0.2-0.196-0.236-0.166-0.587 0.071-0.784l0.668-0.556c0.235-0.198 0.587-0.166 0.783 0.071 0.197 0.236 0.166 0.586-0.07 0.781l-0.668 0.558c-0.105 0.089-0.231 0.13-0.357 0.13z" fill="#fff"/>
		<path d="m39.979 23.005c-0.132 0-0.264-0.045-0.369-0.139l-1.003-0.89c-0.229-0.206-0.251-0.556-0.046-0.787 0.205-0.23 0.557-0.252 0.787-0.047l1.002 0.891c0.229 0.206 0.25 0.556 0.045 0.788-0.11 0.122-0.262 0.184-0.416 0.184z" fill="#fff"/>
		<path d="m36.083 23.005c-0.144 0-0.286-0.054-0.396-0.163l-0.889-0.891c-0.219-0.217-0.219-0.57 0-0.787 0.215-0.218 0.568-0.218 0.785 0l0.891 0.891c0.219 0.218 0.219 0.571 0 0.787-0.108 0.11-0.249 0.163-0.391 0.163z" fill="#fff"/>
		<path d="m23.704 22.673c-0.112 0-0.226-0.036-0.323-0.104-0.251-0.179-0.308-0.526-0.13-0.775l0.558-0.781c0.178-0.25 0.525-0.311 0.776-0.129 0.25 0.178 0.308 0.527 0.129 0.777l-0.557 0.78c-0.107 0.15-0.279 0.232-0.453 0.232z" fill="#fff"/>
		<path d="m16.598 21.113c-0.18 0-0.356-0.086-0.464-0.249-0.171-0.255-0.102-0.599 0.154-0.772l1.001-0.666c0.257-0.171 0.603-0.102 0.773 0.153 0.17 0.256 0.101 0.601-0.155 0.772l-1.001 0.667c-0.095 0.066-0.202 0.095-0.308 0.095z" fill="#fff"/>
		<path d="m26.933 20.558c-0.034 0-0.071-0.006-0.108-0.012-0.302-0.061-0.498-0.353-0.438-0.655l0.111-0.556c0.061-0.302 0.354-0.497 0.655-0.437s0.498 0.352 0.438 0.654l-0.112 0.556c-0.053 0.266-0.285 0.45-0.546 0.45z" fill="#fff"/>
		<path d="m36.639 20.223c-0.064 0-0.131-0.011-0.195-0.035l-0.891-0.335c-0.289-0.107-0.434-0.428-0.326-0.716 0.107-0.287 0.428-0.434 0.717-0.327l0.891 0.335c0.287 0.108 0.434 0.428 0.326 0.716-0.086 0.225-0.298 0.362-0.522 0.362z" fill="#fff"/>
		<path d="m30.384 19.779c-0.267 0-0.503-0.193-0.548-0.466l-0.111-0.668c-0.051-0.304 0.153-0.59 0.457-0.641 0.305-0.053 0.59 0.153 0.641 0.458l0.111 0.668c0.051 0.302-0.154 0.591-0.457 0.641-0.032 0.006-0.063 0.008-0.093 0.008z" fill="#fff"/>
		<path d="m22.831 19.221c-0.254 0-0.484-0.177-0.543-0.437-0.066-0.3 0.123-0.597 0.424-0.663l1.002-0.223c0.3-0.067 0.598 0.123 0.665 0.421 0.065 0.3-0.124 0.597-0.424 0.665l-1.003 0.222c-0.039 0.01-0.08 0.015-0.121 0.015z" fill="#fff"/>
</svg>
