<?xml version="1.0" encoding="UTF-8" standalone="no"?>
<!-- Generator: Adobe Illustrator 16.0.0, SVG Export Plug-In . SVG Version: 6.00 Build 0)  -->
<!DOCTYPE svg  PUBLIC '-//W3C//DTD SVG 1.1//EN'  'http://www.w3.org/Graphics/SVG/1.1/DTD/svg11.dtd'>
<svg id="Layer_1" xmlns="http://www.w3.org/2000/svg" xml:space="preserve" height="55px" viewBox="0 0 55 55" width="55px" version="1.1" y="0px" x="0px" xmlns:xlink="http://www.w3.org/1999/xlink" enable-background="new 0 0 55 55">
	<circle cy="27.499" cx="27.5" r="27.5" fill="#3C3C3B"/>
		<path d="m29.757 34.575v9.871l5.983 1.917c0.221 0.07 0.357 0.291 0.321 0.521-0.035 0.23-0.233 0.397-0.466 0.397h-12.801c-0.23 0-0.429-0.167-0.463-0.397-0.036-0.229 0.1-0.45 0.32-0.521l6.163-1.976v-9.811" fill="#A8DBEE"/>
			<path d="m23.725 18.08c-2.858 0-5.182-2.325-5.182-5.181 0-2.859 2.323-5.182 5.182-5.182 2.857 0 5.184 2.323 5.184 5.182-0.001 2.856-2.327 5.181-5.184 5.181z" fill="#FFD550"/>
		<path d="m34.139 14.612" fill="#A8DBEE"/>
		<path d="m24.434 14.612" fill="#A8DBEE"/>
		<path d="m35.117 22.054c-0.652-1.831-1.271-3.562-1.271-5.124 0-0.451 0.032-0.878 0.09-1.284l0.202-1.034c0.241-0.947 0.59-1.713 0.881-2.241h-11.466c0.289 0.528 0.64 1.293 0.881 2.241l0.203 1.034c0.056 0.406 0.089 0.833 0.089 1.284 0 1.562-0.617 3.292-1.27 5.124-0.66 1.846-1.342 3.756-1.342 5.466 0 2.685 0.743 4.575 2.207 5.621 0.811 0.578 2.541 1.237 3.706 1.409 0.835 0.125 1.682 0.125 2.518 0 1.085-0.16 2.875-0.775 3.71-1.402 1.005-0.752 2.202-2.341 2.202-5.628 0-1.71-0.682-3.621-1.34-5.466z" fill="#A8DBEE"/>
		<path d="m24.637 15.646c0.056 0.406 0.089 0.833 0.089 1.284 0 1.562-0.617 3.292-1.27 5.124-0.66 1.846-1.342 3.756-1.342 5.466 0 2.685 0.743 4.575 2.207 5.621 0.811 0.578 2.541 1.237 3.706 1.409 0.835 0.125 1.682 0.125 2.518 0 1.085-0.16 2.875-0.775 3.71-1.402 1.005-0.752 2.202-2.341 2.202-5.628 0-1.709-0.682-3.62-1.34-5.466-0.652-1.831-1.271-3.562-1.271-5.124 0-0.451 0.032-0.878 0.09-1.284" fill="#CDE0EB"/>
</svg>
