<?xml version="1.0" encoding="UTF-8" standalone="no"?>
<!-- Generator: Adobe Illustrator 16.0.0, SVG Export Plug-In . SVG Version: 6.00 Build 0)  -->
<!DOCTYPE svg  PUBLIC '-//W3C//DTD SVG 1.1//EN'  'http://www.w3.org/Graphics/SVG/1.1/DTD/svg11.dtd'>
<svg id="Layer_1" xmlns="http://www.w3.org/2000/svg" xml:space="preserve" height="55px" viewBox="0 0 55 55" width="55px" version="1.1" y="0px" x="0px" xmlns:xlink="http://www.w3.org/1999/xlink" enable-background="new 0 0 55 55">
	<circle cy="27.5" cx="27.5" r="27.501" fill="#3C3C3B"/>
		<path d="m23.893 34.561l-5.203 5.203c0.998 1.074 0.973 2.76-0.071 3.805-0.518 0.518-1.207 0.804-1.938 0.804-0.733 0-1.421-0.286-1.938-0.804-0.352-0.354-0.596-0.783-0.717-1.252-0.23 0.049-0.466 0.075-0.705 0.075-0.901 0-1.749-0.353-2.385-0.989-1.317-1.315-1.317-3.456 0-4.773 0.636-0.637 1.484-0.987 2.386-0.987s1.749 0.351 2.387 0.987c0.051 0.051 0.099 0.104 0.146 0.158l5.178-5.178" fill="#EDEDED"/>
		<path d="m32.984 10.63c-4.551 0-8.467 3.087-9.524 7.506-0.126 0.524-0.338 1.003-0.629 1.421-3.467 4.949-3.67 10.626-0.493 13.801 1.462 1.465 3.482 2.238 5.842 2.238 2.771 0 5.738-1.069 8.352-3.012 0.425-0.315 0.889-0.544 1.379-0.682 4.205-1.18 7.143-5.057 7.143-9.43 0-3.075-1.4-5.909-3.845-7.78-0.396-0.303-0.769-0.639-1.111-1-1.871-1.974-4.397-3.062-7.114-3.062z" fill="#DC8129"/>
			<path d="m25.105 22.87" fill="#AA6420"/>
				<path d="m24.77 23.348c0.387 0 0.898-0.129 1.134-0.464 0.233-0.333-0.196-0.494-0.462-0.494-0.385 0-0.896 0.13-1.133 0.466-0.234 0.332 0.196 0.492 0.461 0.492z" fill="#AA6420"/>
			<path d="m29.488 19.909" fill="#AA6420"/>
				<path d="m29.152 20.387c0.387 0 0.898-0.128 1.134-0.464 0.233-0.333-0.196-0.494-0.462-0.494-0.386 0-0.897 0.132-1.135 0.465-0.232 0.333 0.198 0.493 0.463 0.493z" fill="#AA6420"/>
			<path d="m29.902 15.111" fill="#AA6420"/>
				<path d="m29.584 15.653c0.399 0 0.904-0.117 1.127-0.492 0.205-0.347-0.173-0.592-0.49-0.592-0.398 0-0.902 0.117-1.125 0.492-0.205 0.347 0.172 0.592 0.488 0.592z" fill="#AA6420"/>
			<path d="m34.58 16.296" fill="#AA6420"/>
				<path d="m34.263 16.838c0.399 0 0.905-0.115 1.126-0.49 0.204-0.348-0.173-0.595-0.488-0.595-0.4 0-0.905 0.118-1.127 0.493-0.206 0.347 0.173 0.592 0.489 0.592z" fill="#AA6420"/>
			<path d="m32.331 23.111" fill="#AA6420"/>
				<path d="m32.013 23.655c0.4 0 0.905-0.116 1.126-0.493 0.204-0.346-0.172-0.595-0.489-0.595-0.4 0-0.905 0.117-1.126 0.494-0.205 0.345 0.171 0.594 0.489 0.594z" fill="#AA6420"/>
</svg>
