<?xml version="1.0" encoding="UTF-8" standalone="no"?>
<!-- Generator: Adobe Illustrator 16.0.0, SVG Export Plug-In . SVG Version: 6.00 Build 0)  -->
<!DOCTYPE svg  PUBLIC '-//W3C//DTD SVG 1.1//EN'  'http://www.w3.org/Graphics/SVG/1.1/DTD/svg11.dtd'>
<svg id="Layer_1" xmlns="http://www.w3.org/2000/svg" xml:space="preserve" height="55px" viewBox="0 0 55 55" width="55px" version="1.1" y="0px" x="0px" xmlns:xlink="http://www.w3.org/1999/xlink" enable-background="new 0 0 55 55">
	<circle cy="27.5" cx="27.5" r="27.5" fill="#3C3C3B"/>
			<path d="m18.858 29.479c-0.11 0-0.223-0.033-0.323-0.101l-7.283-4.93c-0.265-0.178-0.333-0.539-0.155-0.801 0.178-0.264 0.537-0.331 0.801-0.155l7.284 4.933c0.263 0.18 0.333 0.537 0.154 0.802-0.11 0.162-0.293 0.252-0.478 0.252z" fill="#EDEDED"/>
			<path d="m35.877 29.479c-0.184 0-0.365-0.09-0.477-0.253-0.178-0.265-0.109-0.622 0.153-0.802l7.284-4.933c0.264-0.176 0.623-0.107 0.802 0.155 0.179 0.263 0.108 0.623-0.155 0.801l-7.283 4.93c-0.098 0.068-0.211 0.102-0.324 0.102z" fill="#EDEDED"/>
			<path d="m31.256 31.422c-0.055 0-0.11-0.007-0.166-0.023-0.307-0.09-0.479-0.411-0.387-0.717l7.283-24.384c0.091-0.304 0.412-0.479 0.718-0.389 0.306 0.091 0.478 0.412 0.388 0.717l-7.284 24.385c-0.076 0.249-0.304 0.411-0.552 0.411z" fill="#DC8129"/>
			<path d="m35.235 27.851c-0.077 0-0.155-0.018-0.23-0.05-0.292-0.126-0.425-0.468-0.297-0.76l8.188-18.682c0.127-0.293 0.469-0.424 0.759-0.298 0.293 0.13 0.425 0.468 0.298 0.76l-8.188 18.684c-0.095 0.214-0.307 0.346-0.53 0.346z" fill="#DC8129"/>
		<polygon points="20.858 46.127 34.18 46.127 37.236 28.268 17.8 28.268" fill="#F6F6F6"/>
		<path d="m17.917 28.268h19.208l-2.13-6.548h-0.229-0.027-14.648l-2.174 6.548z" fill="#EDEDED"/>
</svg>
