<?xml version="1.0" encoding="UTF-8" standalone="no"?>
<!-- Generator: Adobe Illustrator 16.0.0, SVG Export Plug-In . SVG Version: 6.00 Build 0)  -->
<!DOCTYPE svg  PUBLIC '-//W3C//DTD SVG 1.1//EN'  'http://www.w3.org/Graphics/SVG/1.1/DTD/svg11.dtd'>
<svg id="Layer_1" xmlns="http://www.w3.org/2000/svg" xml:space="preserve" height="55px" viewBox="0 0 55 55" width="55px" version="1.1" y="0px" x="0px" xmlns:xlink="http://www.w3.org/1999/xlink" enable-background="new 0 0 55 55">
	<circle cy="27.5" cx="27.5" r="27.501" fill="#3C3C3B"/>
		<circle cy="27.5" cx="27.5" r="19.277" fill="#B7C5AC"/>
			<path d="m26.102 16.082s1.811-0.368 3.777 0c1.967 0.367 6.748 2.12 7.812 3.236 1.063 1.117 1.167 1.861 1.859 2.392 0.691 0.531 1.7 5.102 1.488 6.75-0.212 1.645-1.011 4.462-1.913 5.1-0.904 0.638-1.701 3.083-2.498 3.881s-1.115 0.69-2.126 0.956c-1.009 0.266-2.231 1.302-2.603 0.943-0.373-0.359-1.382-1.102-2.18-0.784-0.797 0.317-1.859 0.21-1.859 0.21l-4.197-9.774 0.743-9.195 1.697-3.715z" fill="#803612"/>
			<path d="m22.599 16.608s-1.276-0.425-1.647 0c-0.371 0.426 0 0.637 0 0.637l-0.957 0.48h-0.372v0.797h-0.425l-1.062 0.425s-0.107 0.159-0.479 0-0.69 0.266-0.479 0.637c0.213 0.372 0.213 0.903 0.213 0.903s-0.532-0.531-0.638 0-0.479 0.904-0.479 0.904-0.372-0.212-0.372 0 0.214 0.53 0 0.69c-0.212 0.159-0.318 0.425-0.637 0.425s-0.426 0.319-0.426 0.637c0 0.32-0.053 1.064-0.372 1.276-0.318 0.212-0.53 0.585-0.584 0.902-0.054 0.319-0.373 0.586-0.266 0.852 0.106 0.267 0.212 0.69 0.531 0.744 0.318 0.054 0.744-0.425 0.744 0s-0.585 0.744-0.585 0.744-0.053 0.317-0.425 0.529c-0.373 0.213-0.31 0.161-0.287 0.586 0.021 0.425 0.474 0.637-0.019 1.276-0.492 0.636-0.332 1.381-0.492 1.381-0.159 0-0.159 0.161 0 0.37 0.16 0.215 0.479 0.641 0.69 0.799 0.213 0.158 0.798 0.531 0.639 0.639-0.159 0.105 0.266 0.317 0.105 0.424-0.159 0.107 0 0.318 0.054 0.744 0.053 0.427 0.106 0.691 0.266 0.744 0.16 0.055-0.266 0.425 0.054 0.69 0.318 0.267 0.797 0.319 0.265 0.745-0.531 0.424 0.16 0.69 0.426 0.743 0.266 0.054 0.798-0.319 1.115 0 0.32 0.319 0.372 0.372 0.691 0.266 0.318-0.106 0.957-1.009 1.063-0.797s0.266 0.471 0.053 0.846c-0.212 0.376-0.159 1.118 0.479 1.015 0.637-0.106 0.584-0.405 0.85 0.011 0.267 0.415 0.425 0.115 0.69 0 0.267-0.117 0.426-0.276 0.691-0.169 0.266 0.105 0.531 0.287 0.743 0.381 0.213 0.096 0.373 0.223 0.639 0s0-0.808 0.372-0.808 0.691-0.319 0.85-0.054c0.16 0.266 0.585 0.428 0.425 0.639-0.158 0.211-0.407 0.321 0.036 0.346 0.442 0.023 0.496 0.189 0.762 0 0.266-0.187 0.318-0.293 0.531-0.135s0.585-0.027 0.745 0.225c0.158 0.254 0.742 0.385 0.742 0 0-0.383 0.372-0.332 0.585-0.332s-0.16 0.266 0.213 0c0.373-0.262 0.797-0.635 0.797-0.635s0.266-0.69 0.586-0.639c0.317 0.053 0.955-0.637 0.53-0.798-0.425-0.158 0.372-0.638 0.372-0.638s0.212-0.582 0-0.689c-0.213-0.107-0.639-0.158-1.117 0s-0.479 0.158-0.637-0.158c-0.158-0.32-0.158-0.479-0.425-0.639s-0.479-1.17-0.214-1.17c0.267 0 0.32-0.797 0.532-0.955 0.214-0.16 0.372-0.318 0.479-0.106s0.213 0.317 0.159-0.319c-0.053-0.637 0.371-0.424-0.053-0.637-0.425-0.215-0.851-0.959-0.479-1.278 0.372-0.317-0.531 0-0.531 0s-0.479 0.532-0.479 0.161c0-0.373 0.213-1.115 0.371-1.01 0.16 0.109-0.266-0.796 0-0.689 0.267 0.105 0.692 0.318 0.692 0.318s0.266-0.361 0.159-1.005c-0.105-0.643-0.585-0.696-0.105-0.643 0.478 0.052 0.371-0.639 0.105-0.692-0.267-0.052 0-0.69-0.267-0.583-0.265 0.104-0.531-0.161-0.531-0.161s0.213-0.85 0.585-0.796c0.372 0.053-0.425-0.319-0.639-0.266-0.212 0.052-0.371-0.107-0.212-0.531 0.159-0.425 0.054-1.117 0.319-1.117 0.267 0-0.426-0.265-0.691-0.211-0.266 0.052-0.425-0.212-0.212-0.585 0.212-0.373 0.425-1.01 0.053-0.903-0.372 0.105-0.689 0.426-0.797 0-0.107-0.427-0.213-1.329 0.213-1.488 0.425-0.16 0.796-0.531 0.531-0.849-0.266-0.321-0.744-1.223-0.744-1.223s0.266-0.692 0.425-0.587c0.16 0.106 0.054-0.825 0.054-0.825s-1.488-0.98-1.967-0.609c-0.479 0.373-1.115 0.427-1.115 0.427s-0.798-0.266-0.903 0.053l-0.103 0.318z" fill="#fff"/>
			<path d="m39.391 26.228s-2.232-2.712-2.764-2.605-2.02 1.859-2.179 2.286c-0.159 0.425 0.585 0.956 1.063 1.169 0.479 0.212 1.699 0.169 1.965 0.588 0.267 0.422 0.692 0.847 0.852 1.112 0.158 0.265 1.363-2.193 1.063-2.55z" fill="#EC6907"/>
			<path d="m35.14 24.368s-1.967-2.605-2.444-2.711c-0.479-0.106-2.977 1.274-2.977 1.354s-0.053 1.463 1.064 1.834c1.115 0.373 3.876 0.71 3.876 0.71l0.481-1.187z" fill="#D98400"/>
			<path d="m35.14 28.798s-1.489 0.616-2.072 0.458c-0.585-0.16-1.913-0.803-1.966-0.217-0.055 0.588 0.159 1.598 0 1.918-0.159 0.318-0.071 1.328-0.01 1.754 0.062 0.424 0.965-0.584 1.551-0.799 0.584-0.212 0.69-1.434 1.381-1.381 0.691 0.054 1.116-1.733 1.116-1.733z" fill="#F07E2D"/>
</svg>
