<?xml version="1.0" encoding="UTF-8" standalone="no"?>
<!-- Generator: Adobe Illustrator 16.0.0, SVG Export Plug-In . SVG Version: 6.00 Build 0)  -->
<!DOCTYPE svg  PUBLIC '-//W3C//DTD SVG 1.1//EN'  'http://www.w3.org/Graphics/SVG/1.1/DTD/svg11.dtd'>
<svg id="Layer_1" xmlns="http://www.w3.org/2000/svg" xml:space="preserve" height="55px" viewBox="0 0 55 55" width="55px" version="1.1" y="0px" x="0px" xmlns:xlink="http://www.w3.org/1999/xlink" enable-background="new 0 0 55 55">
	<circle cy="27.499" cx="27.5" r="27.5" fill="#3C3C3B"/>
		<path d="m23.973 42.212c-7.88 0-14.291-6.41-14.291-14.291s6.411-14.291 14.291-14.291 14.291 6.41 14.291 14.291-6.411 14.291-14.291 14.291z" fill="#BED7EC"/>
		<path d="m45.319 14.633c0 0.766-0.62 1.386-1.388 1.386h-4.281c-0.766 0-1.387-0.62-1.387-1.386v-0.639c0-0.765 0.621-1.386 1.387-1.386h4.281c0.768 0 1.388 0.622 1.388 1.386v0.639z" fill="#BED7EC"/>
			<path d="m40.767 43.618c-0.247 0-0.448-0.201-0.448-0.451v-31.338c0-0.249 0.201-0.449 0.448-0.449 0.249 0 0.449 0.2 0.449 0.449v31.338c0 0.25-0.2 0.451-0.449 0.451z" fill="#DC8129"/>
			<path d="m42.758 43.618c-0.249 0-0.449-0.201-0.449-0.451v-31.338c0-0.249 0.2-0.449 0.449-0.449 0.248 0 0.448 0.2 0.448 0.449v31.338c0 0.25-0.2 0.451-0.448 0.451z" fill="#DC8129"/>
		<path d="m23.121 26.455c0 1.069-0.865 1.933-1.934 1.933h-2.475c-1.067 0-1.933-0.864-1.933-1.933v-2.476c0-1.067 0.865-1.932 1.933-1.932h2.475c1.068 0 1.934 0.865 1.934 1.932v2.476z" fill="#39433A"/>
		<path d="m21.684 25.93c0 0.563-0.457 1.021-1.022 1.021h-1.422c-0.565 0-1.022-0.458-1.022-1.021v-1.423c0-0.566 0.457-1.023 1.022-1.023h1.421c0.565 0 1.022 0.458 1.022 1.023v1.423z" fill="#fff"/>
		<path d="m30.645 23.691c0 1.068-0.864 1.931-1.932 1.931h-2.477c-1.067 0-1.932-0.863-1.932-1.931v-2.476c0-1.067 0.864-1.932 1.932-1.932h2.477c1.067 0 1.932 0.865 1.932 1.932v2.476z" fill="#39433A"/>
		<path d="m29.209 23.166c0 0.562-0.459 1.02-1.021 1.02h-1.424c-0.564 0-1.021-0.458-1.021-1.02v-1.424c0-0.563 0.457-1.022 1.021-1.022h1.424c0.562 0 1.021 0.459 1.021 1.022v1.424z" fill="#fff"/>
		<path d="m23.121 33.968c0 1.066-0.865 1.932-1.934 1.932h-2.475c-1.067 0-1.933-0.865-1.933-1.932v-2.478c0-1.067 0.865-1.931 1.933-1.931h2.475c1.068 0 1.934 0.863 1.934 1.931v2.478z" fill="#39433A"/>
		<path d="m21.684 33.44c0 0.563-0.457 1.021-1.022 1.021h-1.422c-0.565 0-1.022-0.457-1.022-1.021v-1.424c0-0.562 0.457-1.021 1.022-1.021h1.421c0.565 0 1.022 0.459 1.022 1.021v1.424z" fill="#fff"/>
		<path d="m30.645 31.202c0 1.066-0.864 1.934-1.932 1.934h-2.477c-1.067 0-1.932-0.867-1.932-1.934v-2.477c0-1.066 0.864-1.933 1.932-1.933h2.477c1.067 0 1.932 0.867 1.932 1.933v2.477z" fill="#39433A"/>
		<path d="m29.209 30.675c0 0.564-0.459 1.023-1.021 1.023h-1.424c-0.564 0-1.021-0.459-1.021-1.023v-1.422c0-0.562 0.457-1.021 1.021-1.021h1.424c0.562 0 1.021 0.458 1.021 1.021v1.422z" fill="#fff"/>
		<path d="m20.646 25.553c0 0.2-0.161 0.359-0.359 0.359h-0.672c-0.198 0-0.36-0.159-0.36-0.359v-0.67c0-0.201 0.162-0.362 0.36-0.362h0.672c0.198 0 0.359 0.162 0.359 0.362v0.67z" fill="#E67373"/>
		<path d="m28.172 22.79c0 0.198-0.163 0.359-0.361 0.359h-0.671c-0.2 0-0.361-0.161-0.361-0.359v-0.672c0-0.199 0.161-0.36 0.361-0.36h0.671c0.198 0 0.361 0.161 0.361 0.36v0.672z" fill="#E67373"/>
		<path d="m28.172 30.301c0 0.199-0.163 0.359-0.361 0.359h-0.671c-0.2 0-0.361-0.16-0.361-0.359v-0.673c0-0.199 0.161-0.359 0.361-0.359h0.671c0.198 0 0.361 0.16 0.361 0.359v0.673z" fill="#E67373"/>
		<path d="m20.646 33.065c0 0.197-0.161 0.359-0.359 0.359h-0.672c-0.198 0-0.36-0.162-0.36-0.359v-0.672c0-0.199 0.162-0.359 0.36-0.359h0.672c0.198 0 0.359 0.16 0.359 0.359v0.672z" fill="#E67373"/>
</svg>
