<?xml version="1.0" encoding="UTF-8" standalone="no"?>
<!-- Generator: Adobe Illustrator 16.0.0, SVG Export Plug-In . SVG Version: 6.00 Build 0)  -->
<!DOCTYPE svg  PUBLIC '-//W3C//DTD SVG 1.1//EN'  'http://www.w3.org/Graphics/SVG/1.1/DTD/svg11.dtd'>
<svg id="Layer_1" xmlns="http://www.w3.org/2000/svg" xml:space="preserve" height="55px" viewBox="0 0 55 55" width="55px" version="1.1" y="0px" x="0px" xmlns:xlink="http://www.w3.org/1999/xlink" enable-background="new 0 0 55 55">
	<circle cy="27.5" cx="27.5" r="27.5" fill="#3C3C3B"/>
		<path d="m25.038 46.206c-0.123 0-0.244-0.048-0.339-0.142l-4.102-4.102c-0.09-0.09-0.14-0.213-0.14-0.338 0-0.129 0.05-0.249 0.14-0.339l0.7-0.7c0.209-0.207 0.488-0.328 0.785-0.33l3.984-0.064 2.944-2.943-0.629-0.63c-0.709-0.708-0.709-1.86 0-2.568l0.02-0.019c0.709-0.711 1.861-0.711 2.57 0l0.628 0.627 1.581-1.58-0.627-0.629c-0.709-0.709-0.709-1.863 0-2.57l0.019-0.021c0.343-0.341 0.799-0.531 1.284-0.531 0.486 0 0.942 0.19 1.286 0.531l0.628 0.631 1.582-1.581-0.629-0.631c-0.709-0.708-0.709-1.861 0-2.571l0.02-0.019c0.708-0.708 1.861-0.708 2.57 0l0.628 0.628 1.582-1.579-0.629-0.631c-0.71-0.708-0.71-1.862 0-2.57l0.019-0.019c0.709-0.708 1.862-0.708 2.572 0l0.629 0.628 1.85-1.849c0.186-0.188 0.489-0.188 0.676 0 0.187 0.185 0.187 0.488 0 0.675l-1.852 1.851 0.629 0.629c0.71 0.711 0.71 1.862 0 2.572l-0.019 0.017c-0.344 0.344-0.8 0.534-1.284 0.534-0.487 0-0.943-0.189-1.286-0.534l-0.63-0.628-1.581 1.582 0.63 0.628c0.708 0.708 0.708 1.863 0 2.57l-0.021 0.021c-0.708 0.711-1.86 0.711-2.569 0l-0.629-0.629-1.582 1.581 0.629 0.628c0.344 0.346 0.533 0.802 0.533 1.288 0 0.485-0.189 0.94-0.533 1.284l-0.019 0.018c-0.708 0.709-1.862 0.709-2.57 0l-0.63-0.629-1.581 1.582 0.629 0.63c0.71 0.708 0.71 1.862 0 2.57l-0.019 0.019c-0.709 0.711-1.863 0.711-2.57 0l-0.629-0.629-3.081 3.082c-0.088 0.086-0.206 0.137-0.33 0.139l-4.179 0.066c-0.048 0-0.092 0.018-0.124 0.051l-0.362 0.363 3.427 3.428 0.414-0.414c0.187-0.187 0.488-0.187 0.676 0 0.186 0.185 0.186 0.488 0 0.673l-0.753 0.753c-0.092 0.092-0.214 0.14-0.336 0.14zm-8.607-3.009c-0.126 0-0.248-0.051-0.337-0.141l-4.104-4.102c-0.187-0.188-0.187-0.488 0-0.674l0.701-0.701c0.209-0.211 0.488-0.328 0.784-0.334l3.985-0.062 2.944-2.942-0.629-0.631c-0.709-0.708-0.709-1.861 0-2.57l0.019-0.018c0.709-0.71 1.861-0.71 2.57 0l0.631 0.628 1.578-1.581-0.627-0.627c-0.71-0.711-0.71-1.864 0-2.572l0.019-0.019c0.709-0.711 1.861-0.711 2.57-0.001l0.631 0.629 1.579-1.582-0.629-0.63c-0.344-0.343-0.531-0.799-0.531-1.284s0.188-0.943 0.531-1.285l0.02-0.019c0.708-0.709 1.861-0.709 2.57 0l0.63 0.628 1.58-1.582-0.629-0.63c-0.343-0.342-0.532-0.798-0.532-1.284 0-0.487 0.189-0.942 0.532-1.285l0.019-0.019c0.344-0.344 0.801-0.535 1.287-0.535 0.484 0 0.941 0.191 1.283 0.533l0.629 0.63 1.583-1.582-0.63-0.63c-0.343-0.342-0.532-0.799-0.532-1.284s0.189-0.943 0.532-1.285l0.019-0.019c0.71-0.709 1.862-0.709 2.571 0l0.629 0.628 3.006-3.008c0.188-0.187 0.49-0.187 0.678 0 0.186 0.187 0.186 0.491 0 0.675l-3.008 3.007 0.629 0.63c0.709 0.708 0.709 1.863 0 2.57l-0.02 0.02c-0.343 0.343-0.799 0.532-1.285 0.532-0.485 0-0.941-0.188-1.285-0.534l-0.629-0.628-1.582 1.581 0.631 0.63c0.708 0.708 0.708 1.861 0 2.571l-0.02 0.019c-0.344 0.344-0.801 0.532-1.287 0.532-0.483 0-0.941-0.188-1.285-0.532l-0.627-0.63-1.582 1.583 0.629 0.626c0.709 0.709 0.709 1.863 0 2.572l-0.02 0.019c-0.344 0.343-0.799 0.532-1.284 0.532-0.486 0-0.942-0.188-1.286-0.532l-0.629-0.63-1.582 1.582 0.631 0.63c0.709 0.708 0.709 1.862 0 2.57l-0.021 0.019c-0.707 0.71-1.86 0.71-2.569 0l-0.628-0.629-1.583 1.582 0.63 0.629c0.709 0.707 0.709 1.862 0 2.57l-0.02 0.019c-0.708 0.71-1.861 0.71-2.57 0l-0.629-0.63-3.082 3.081c-0.087 0.089-0.206 0.14-0.329 0.14l-4.179 0.066c-0.046 0-0.092 0.02-0.124 0.051l-0.363 0.363 3.428 3.429 0.414-0.415c0.187-0.188 0.489-0.188 0.675 0 0.188 0.188 0.188 0.489 0 0.676l-0.752 0.75c-0.089 0.095-0.21 0.146-0.337 0.146zm-3.631-8.353c-0.128 0-0.249-0.053-0.338-0.142l-4.103-4.102c-0.187-0.186-0.187-0.49 0-0.676l0.7-0.701c0.21-0.207 0.488-0.328 0.785-0.332l3.983-0.06 2.945-2.945-0.629-0.628c-0.709-0.709-0.709-1.863 0-2.57l0.019-0.02c0.344-0.343 0.801-0.531 1.285-0.531 0.486 0 0.942 0.188 1.286 0.531l0.629 0.629 1.58-1.58-0.628-0.63c-0.344-0.343-0.532-0.799-0.532-1.285s0.188-0.942 0.532-1.286l0.019-0.019c0.344-0.344 0.801-0.533 1.285-0.533 0.486 0 0.943 0.189 1.286 0.533l0.629 0.629 1.58-1.582-0.629-0.628c-0.343-0.344-0.532-0.803-0.532-1.287 0-0.485 0.189-0.94 0.532-1.286l0.021-0.018c0.708-0.709 1.861-0.709 2.57 0l0.629 0.63 1.581-1.583-0.628-0.628c-0.711-0.71-0.711-1.862 0-2.572l0.019-0.02c0.708-0.708 1.86-0.708 2.569 0l0.63 0.628 1.851-1.851c0.186-0.185 0.488-0.185 0.676 0 0.186 0.188 0.186 0.491 0 0.677l-1.852 1.851 0.629 0.629c0.344 0.345 0.533 0.799 0.533 1.286 0 0.485-0.189 0.943-0.533 1.285l-0.018 0.021c-0.709 0.708-1.863 0.708-2.572 0l-0.629-0.629-1.582 1.58 0.631 0.629c0.709 0.709 0.709 1.862 0 2.572l-0.02 0.019c-0.708 0.708-1.862 0.708-2.57 0l-0.63-0.63-1.581 1.583 0.63 0.627c0.709 0.709 0.709 1.862 0 2.572l-0.02 0.02c-0.708 0.708-1.861 0.708-2.57 0l-0.63-0.63-1.581 1.583 0.631 0.629c0.708 0.708 0.708 1.862 0 2.57l-0.021 0.019c-0.709 0.709-1.861 0.709-2.57 0l-0.63-0.63-3.081 3.082c-0.088 0.088-0.205 0.139-0.33 0.139l-4.178 0.064c-0.047 0.002-0.092 0.021-0.124 0.054l-0.362 0.362 3.427 3.428 0.414-0.413c0.187-0.187 0.489-0.187 0.676 0 0.186 0.187 0.186 0.488 0 0.673l-0.754 0.753c-0.088 0.087-0.209 0.14-0.335 0.14z" fill="#C6C6C6"/>
		<path d="m24.945 23.146c-0.742 0.741-1.946 0.741-2.689 0l-2.085-2.085c-0.742-0.743-0.742-1.948 0-2.69 0.743-0.744 1.947-0.744 2.689 0l2.085 2.086c0.744 0.74 0.744 1.945 0 2.689z" fill="#683C11"/>
		<path d="m20.768 27.323c-0.743 0.743-1.946 0.743-2.689 0l-2.085-2.085c-0.742-0.743-0.742-1.947 0-2.689s1.947-0.742 2.69 0l2.084 2.085c0.744 0.742 0.744 1.946 0 2.689z" fill="#683C11"/>
		<path d="m45.545 26.123c-0.743 0.742-1.947 0.742-2.689 0l-2.086-2.085c-0.742-0.742-0.742-1.948 0-2.69 0.744-0.744 1.947-0.744 2.69 0l2.085 2.085c0.743 0.742 0.743 1.946 0 2.69z" fill="#683C11"/>
		<path d="m41.351 30.317c-0.743 0.742-1.946 0.742-2.69 0l-2.084-2.085c-0.744-0.743-0.744-1.948 0-2.69 0.742-0.744 1.946-0.744 2.689 0l2.085 2.083c0.743 0.744 0.743 1.948 0 2.692z" fill="#683C11"/>
		<path d="m37.189 34.477c-0.744 0.743-1.948 0.743-2.689 0l-2.086-2.082c-0.743-0.745-0.743-1.948 0-2.691 0.743-0.742 1.947-0.742 2.689 0l2.086 2.086c0.743 0.74 0.743 1.945 0 2.687z" fill="#683C11"/>
		<path d="m33.011 38.656c-0.743 0.743-1.947 0.743-2.69 0l-2.085-2.085c-0.742-0.744-0.742-1.947 0-2.691 0.743-0.741 1.948-0.741 2.689 0l2.086 2.086c0.743 0.744 0.743 1.947 0 2.69z" fill="#683C11"/>
		<path d="m41.106 18.982c-0.741 0.742-1.945 0.742-2.688 0l-2.085-2.084c-0.743-0.744-0.743-1.948 0-2.691 0.742-0.743 1.946-0.743 2.69 0l2.084 2.085c0.744 0.743 0.744 1.948-0.001 2.69z" fill="#803612"/>
		<path d="m36.914 23.177c-0.744 0.744-1.948 0.744-2.689 0l-2.086-2.085c-0.743-0.742-0.743-1.947 0-2.69 0.742-0.742 1.946-0.742 2.689 0l2.086 2.086c0.742 0.743 0.742 1.947 0 2.689z" fill="#803612"/>
		<path d="m32.752 27.339c-0.743 0.743-1.947 0.743-2.689 0l-2.086-2.084c-0.743-0.742-0.743-1.949 0-2.689 0.743-0.745 1.947-0.745 2.689 0l2.086 2.083c0.742 0.743 0.742 1.948 0 2.69z" fill="#803612"/>
		<path d="m28.572 31.52c-0.741 0.741-1.945 0.741-2.688 0l-2.086-2.086c-0.742-0.744-0.742-1.948 0-2.69 0.743-0.744 1.947-0.744 2.69 0l2.084 2.085c0.744 0.742 0.744 1.945 0 2.691z" fill="#803612"/>
		<path d="m24.411 35.679c-0.742 0.743-1.945 0.743-2.689 0l-2.084-2.085c-0.744-0.742-0.744-1.947 0-2.689 0.742-0.742 1.945-0.742 2.688 0l2.085 2.086c0.744 0.74 0.744 1.946 0 2.688z" fill="#803612"/>
		<path d="m33.302 14.789c-0.743 0.743-1.946 0.743-2.688 0l-2.086-2.084c-0.743-0.745-0.743-1.948 0-2.69 0.742-0.744 1.946-0.744 2.69 0l2.084 2.086c0.743 0.74 0.743 1.946 0 2.688z" fill="#683C11"/>
		<path d="m29.107 18.982c-0.742 0.742-1.946 0.742-2.688 0l-2.086-2.084c-0.743-0.744-0.743-1.948 0-2.691s1.947-0.743 2.69 0l2.084 2.085c0.744 0.743 0.744 1.948 0 2.69z" fill="#683C11"/>
</svg>
