<?xml version="1.0" encoding="UTF-8" standalone="no"?>
<!-- Generator: Adobe Illustrator 16.0.0, SVG Export Plug-In . SVG Version: 6.00 Build 0)  -->
<!DOCTYPE svg  PUBLIC '-//W3C//DTD SVG 1.1//EN'  'http://www.w3.org/Graphics/SVG/1.1/DTD/svg11.dtd'>
<svg id="Layer_1" xmlns="http://www.w3.org/2000/svg" xml:space="preserve" height="55px" viewBox="0 0 55 55" width="55px" version="1.1" y="0px" x="0px" xmlns:xlink="http://www.w3.org/1999/xlink" enable-background="new 0 0 55 55">
	<circle cy="27.5" cx="27.5" r="27.5" fill="#3C3C3B"/>
		<path d="m45.816 35.626s1.045 2.86-1.117 4.535c-2.163 1.675-4.326 1.745-5.024 1.536-0.696-0.21-1.954-1.257-3.069-1.048-1.117 0.209-2.094 1.954-3.281 1.814-1.186-0.138-1.752-1.396-2.55-1.327-0.798 0.07-2.472 1.117-3.52 0.91-1.047-0.211-1.954-2.023-3.21-1.957-1.256 0.071-2.625 1.188-3.894 0.422-1.271-0.769-1.062-1.513-1.759-1.856s-2.337 0.32-3.209-0.169c-0.872-0.488-1.455-2.338-2.228-2.651s-4.905-2.647-2.177-6.017l22.302 3.506 12.736 2.302z" fill="#FDDB9C"/>
		<path d="m16.113 17.09s-2.535-0.724-3.791 2.766c0 0-3.837 2.179-3.35 5.975 0.488 3.795 3.55 5.471 3.55 5.471s2.591 6.279 9.568 4.604 3.785 4.883 8.347 1.639l0.934-3.104-11.22-8.095-2.944-8.722-1.094-0.534z" fill="#F8FCFF"/>
		<path d="m15.744 19.17s-2.026 0.827-1.816 2.919c0 0-2.112 3.498 0.981 4.013 0.088 0.014 0.18 0.025 0.274 0.034 3.489 0.351 0.005 1.744 0.561 2.651s1.812 0.209 2.371 0.768c0.558 0.559 1.7 0.14 2.036-0.418 0.335-0.558-0.852-3.907-0.852-3.907l-2.583-5.374-0.972-0.686z" fill="#BD1818"/>
		<path d="m13.928 23.555s-1.885 0.348-1.536-0.769c0.35-1.114 1.536-1.116 1.885-0.768 0.347 0.351-0.349 1.537-0.349 1.537z" fill="#A4C738"/>
		<path d="m13.787 29.416s0.477-2.023-0.563-2.303c-1.041-0.28-1.615 1.883-0.875 2.303 0.742 0.42 1.438 0 1.438 0z" fill="#A4C738"/>
		<path d="m15.729 25.83s-1.034-0.183-0.965 0.585c0.07 0.767 1.104 1.081 1.535 0.674 0.431-0.409-0.57-1.259-0.57-1.259z" fill="#A4C738"/>
		<path d="m20.151 29.137s-1.41 1.117-1.271 1.674c0 0-0.693 1.467 0.631 1.887 1.323 0.416 0.699-0.7 0.699-0.7s1.949 1.07 2.23-1.034c0.279-2.107-2.289-1.827-2.289-1.827z" fill="#A4C738"/>
		<path d="m43.513 33.043s-1.884-0.941-2.511-3.141c-0.629-2.197-4.396-9.419-8.584-12.036-4.187-2.615-8.163-2.93-9.106-3.558-0.941-0.629-3.243-2.198-4.604-1.675-1.36 0.523-1.988 2.198-1.779 3.037 0 0-2.304 2.824-0.523 5.23 0 0-0.837 4.082 2.826 4.919 0 0-1.047 4.92 3.559 5.654 0 0 0.941 4.187 5.756 3.767 0 0 1.465 2.722 3.664 3.245 2.197 0.525 3.769-0.314 5.023 0 1.257 0.314 2.199 0.732 3.35 0.629 1.152-0.104 5.129-0.418 5.234-2.514 0.102-2.09-2.305-3.557-2.305-3.557z" fill="#FDDB9C"/>
		<path d="m22.459 13.753c0.34 0.212 0.633 0.409 0.853 0.556 0.943 0.628 4.92 0.942 9.106 3.558 4.188 2.617 7.955 9.839 8.584 12.036 0.627 2.199 2.511 3.141 2.511 3.141s-3.629 2.722-8.513 1.257c-4.885-1.467-13.606-6.701-14.723-12.909-1.117-6.211 2.182-7.639 2.182-7.639z" fill="#DC8129"/>
</svg>
