<?xml version="1.0" encoding="UTF-8" standalone="no"?>
<!-- Generator: Adobe Illustrator 16.0.0, SVG Export Plug-In . SVG Version: 6.00 Build 0)  -->
<!DOCTYPE svg  PUBLIC '-//W3C//DTD SVG 1.1//EN'  'http://www.w3.org/Graphics/SVG/1.1/DTD/svg11.dtd'>
<svg id="Layer_1" xmlns="http://www.w3.org/2000/svg" xml:space="preserve" height="55px" viewBox="0 0 55 55" width="55px" version="1.1" y="0px" x="0px" xmlns:xlink="http://www.w3.org/1999/xlink" enable-background="new 0 0 55 55">
	<circle cy="27.501" cx="27.5" r="27.5" fill="#3C3C3B"/>
		<path d="m20.116 46.121c-0.073 0-0.146-0.016-0.217-0.043-0.209-0.088-0.345-0.293-0.345-0.518v-36.121c0-0.304 0.241-0.551 0.544-0.562 0.087-0.001 0.168 0.017 0.242 0.047 0.13 0.024 0.458 0.062 0.776 0.101 2.198 0.257 8.035 0.944 12.861 3.19 7.689 3.576 11.379 8.176 11.533 8.369 0.178 0.225 0.156 0.546-0.047 0.745l-24.953 24.63c-0.107 0.106-0.25 0.162-0.394 0.162z" fill="#FDDB9C"/>
		<path d="m32.205 16.255c-4.935-2.489-12.65-2.566-12.65-2.566v-4.25c0-0.304 0.241-0.551 0.544-0.562 0.087-0.001 0.168 0.017 0.242 0.047 0.13 0.024 0.458 0.062 0.776 0.101 2.198 0.257 8.035 0.944 12.861 3.19 7.689 3.576 11.379 8.176 11.533 8.369 0.178 0.225 0.156 0.546-0.047 0.745l-2.953 2.916c0.001 0.001-5.373-5.504-10.306-7.99z" fill="#DC8129"/>
		<circle cy="18.797" cx="21.923" r="1.709" fill="#BD1818"/>
		<circle cy="19.569" cx="28.66" r="2.627" fill="#F8FCFF"/>
		<path d="m37.738 26.232c0 1.73-1.403 3.139-3.137 3.139-1.732 0-3.139-1.408-3.139-3.139 0-1.733 1.406-3.139 3.139-3.139 1.734 0.001 3.137 1.406 3.137 3.139z" fill="#BD1818"/>
		<circle cy="26.878" cx="25.374" r="2.616" fill="#F8FCFF"/>
		<path d="m24.491 41.075" fill="#010202"/>
		<path d="m29.502 37.248c0 2.244-1.819 4.065-4.066 4.065-2.245 0-4.065-1.821-4.065-4.065 0-2.248 1.82-4.068 4.065-4.068 2.247 0 4.066 1.82 4.066 4.068z" fill="#BD1818"/>
</svg>
