<?xml version="1.0" encoding="UTF-8" standalone="no"?>
<!-- Generator: Adobe Illustrator 16.0.0, SVG Export Plug-In . SVG Version: 6.00 Build 0)  -->
<!DOCTYPE svg  PUBLIC '-//W3C//DTD SVG 1.1//EN'  'http://www.w3.org/Graphics/SVG/1.1/DTD/svg11.dtd'>
<svg id="Layer_1" xmlns="http://www.w3.org/2000/svg" xml:space="preserve" height="55px" viewBox="0 0 55 55" width="55px" version="1.1" y="0px" x="0px" xmlns:xlink="http://www.w3.org/1999/xlink" enable-background="new 0 0 55 55">
	<circle cy="27.5" cx="27.5" r="27.5" fill="#3C3C3B"/>
		<path d="m23.973 42.211c-7.881 0-14.291-6.41-14.291-14.29 0-7.879 6.41-14.288 14.291-14.288 7.879 0 14.289 6.409 14.289 14.288 0.002 7.88-6.41 14.29-14.289 14.29z" fill="#CDE0EB"/>
			<path d="m15.375 29.33c-1.394-1.74-0.159-4.218 1.336-5.427 0.758-0.611 1.781-0.981 2.754-0.785 0.912 0.183 1.697 0.777 1.918 1.638 0.162 0.641-0.038 1.457-0.42 1.915-0.051 0.062-0.107 0.12-0.166 0.173-0.027 0.028-0.058 0.052-0.088 0.076 0.078-0.063-0.019 0.011-0.031 0.018-0.031 0.021-0.217 0.112-0.117 0.072-0.043 0.017-0.265 0.065-0.15 0.05-0.068 0.009-0.14 0.005-0.209 0 0.114 0.012-0.088-0.027-0.126-0.043 0.082 0.029-0.105-0.062-0.14-0.083-0.114-0.076 0.06 0.054-0.049-0.038-0.05-0.04-0.095-0.086-0.139-0.131-0.361-0.376-0.572-0.954-0.721-1.458-0.201-0.684-0.137-1.391 0.117-2.05 0.498-1.29 1.828-2.021 3.051-2.484 2.446-0.931 5.442-0.965 7.674 0.542 1.182 0.8 2.033 2.106 2.434 3.463 0.406 1.383 0.289 2.851-0.107 4.221-0.42 1.452-1.176 2.797-2.071 4.007-0.765 1.036-1.8 1.896-3.004 2.364-2.245 0.876-4.742 0.266-6.479-1.357-0.944-0.883-1.648-2.027-2.048-3.254-0.289-0.895-0.463-2.02-0.049-2.851 0.17-0.339 0.427-0.592 0.764-0.728 0.477-0.193 1.012-0.182 1.511-0.097 0.61 0.102 1.222 0.28 1.727 0.646 0.408 0.297 0.709 0.737 0.941 1.177 0.488 0.933 0.619 2.088 0.302 3.093-0.323 1.021-1.194 1.529-2.162 1.831-1.09 0.342-2.338 0.494-3.456 0.211-0.42-0.107-0.859-0.308-1.108-0.668-0.375-0.543-0.573-1.148-0.693-1.794-0.258-1.387-0.098-2.852 0.071-4.238 0.147-1.189 0.274-2.395 0.532-3.569 0.237-1.078 0.619-2.344 1.54-3.046 1.006-0.767 2.523-0.882 3.727-0.665 1.331 0.244 2.56 0.926 3.508 1.886 1.068 1.077 1.68 2.603 1.861 4.093 0.104 0.868 0.016 1.728-0.286 2.546-0.208 0.57-0.596 1.133-0.971 1.606-0.319 0.406-0.764 0.903-1.32 0.921-0.451 0.016-0.881-0.319-1.18-0.623-0.714-0.736-1.057-1.859-0.946-2.868 0.113-1.036 1.092-1.62 2.022-1.84 1.986-0.469 3.71 1.331 4.224 3.093 0.278 0.949 0.23 1.988-0.24 2.87-0.562 1.058-1.73 1.896-2.938 1.976-1.208 0.078-2.291-0.582-3.059-1.465-0.786-0.91-1.178-2.089-1.25-3.272-0.072-1.162 0.081-2.348 0.479-3.443 0.179-0.495 0.44-0.98 0.788-1.377 0.363-0.414 0.801-0.656 1.322-0.815 1.318-0.398 2.67-0.214 3.807 0.563 1.162 0.793 1.855 2.109 2.422 3.355 0.545 1.196 0.922 2.571 0.621 3.879-0.342 1.494-1.553 2.479-2.779 3.276-1.363 0.889-2.878 1.571-4.495 1.817-1.449 0.225-3.201-0.025-4.386-0.949-1.014-0.789-1.641-2.048-2.058-3.236-0.217-0.615-0.387-1.263-0.473-1.912-0.038-0.284-0.059-0.57-0.062-0.859-0.002-0.107 0-0.215 0.008-0.324 0.003-0.033 0.006-0.066 0.011-0.097-0.016 0.124 0.005-0.04 0.009-0.062 0.146-0.881 0.483-1.748 0.846-2.561 0.448-1 0.992-1.991 1.701-2.832 0.304-0.36 0.643-0.695 1.036-0.947 0.341-0.215 0.673-0.329 1.037-0.321 0.143 0.004 0.244 0.024 0.41 0.09-0.122-0.048 0.055 0.031 0.086 0.05 0.028 0.018 0.055 0.035 0.081 0.052 0.104 0.069-0.021-0.022 0.038 0.026 0.276 0.225 0.347 0.345 0.521 0.646 0.369 0.63 0.567 1.385 0.713 2.164 0.16 0.861 0.218 1.772 0.2 2.675-0.016 0.883-0.099 1.673-0.321 2.519-0.044 0.179-0.099 0.353-0.159 0.523-0.074 0.212-0.084 0.236-0.183 0.431-0.159 0.325-0.249 0.458-0.464 0.664-0.024 0.021-0.049 0.043-0.071 0.062-0.082 0.071 0.079-0.057-0.009 0.005-0.048 0.035-0.1 0.066-0.153 0.096-0.1 0.052 0.061-0.016-0.082 0.033-0.041 0.014-0.251 0.047-0.111 0.031-0.06 0.008-0.121 0.008-0.181 0.006-0.031-0.002-0.063-0.004-0.094-0.006 0.126 0.011 0.016 0-0.009-0.008-0.068-0.012-0.135-0.032-0.2-0.056-0.016-0.005-0.127-0.048-0.03-0.007-0.065-0.029-0.13-0.062-0.191-0.102-0.453-0.274-0.74-0.846-0.952-1.311-0.24-0.527-0.384-1.131-0.356-1.712 0.037-0.798 0.923-1.185 1.579-1.402 0.434-0.145 0.887-0.236 1.341-0.276 0.433-0.038 0.893-0.062 1.317 0.035 0.773 0.183 1.156 0.986 1.502 1.628 0.556 1.036 1.194 2.198 0.849 3.405 0.22-0.09 0.438-0.178 0.659-0.266-0.116-0.075 0.055 0.054-0.03-0.021-0.038-0.031-0.073-0.068-0.108-0.104-0.037-0.041-0.073-0.085-0.109-0.129 0.082 0.103-0.055-0.078-0.077-0.111-0.184-0.273-0.333-0.568-0.473-0.863-0.338-0.724-0.622-1.587-0.852-2.412-0.255-0.92-0.459-1.881-0.57-2.812-0.055-0.454-0.087-0.912-0.094-1.368-0.004-0.202 0.001-0.404 0.011-0.606 0.013-0.196 0.037-0.418 0.056-0.528 0.025-0.167 0.062-0.332 0.109-0.496 0.06-0.209 0.077-0.247 0.145-0.381 0.031-0.064 0.066-0.121 0.105-0.181 0.018-0.028 0.036-0.054 0.057-0.082-0.069 0.093-0.003 0.007 0.012-0.01 0.041-0.048 0.087-0.09 0.135-0.131 0.08-0.072-0.08 0.056 0.007-0.007 0.033-0.024 0.069-0.045 0.104-0.065 0.027-0.014 0.056-0.028 0.083-0.042-0.109 0.052-0.014 0.009 0.01 0 0.062-0.02 0.125-0.036 0.19-0.048-0.126 0.025 0.082-0.001 0.121-0.003 0.056-0.002 0.209 0.014 0.206 0.012 0.399 0.062 0.674 0.25 0.946 0.552 0.539 0.596 0.758 1.516 0.71 2.322-0.021 0.337-0.115 0.672-0.323 0.963 0.032-0.045-0.096 0.095-0.127 0.125-0.099 0.088 0.066-0.042-0.042 0.034-0.034 0.021-0.07 0.041-0.107 0.062-0.118 0.065 0.077-0.024-0.05 0.024-0.041 0.016-0.083 0.024-0.125 0.036-0.094 0.024-0.119 0.024-0.26 0.024-1.075-0.007-2.222-0.426-3.155-0.932-0.949-0.516-1.856-1.293-2.127-2.381-0.242-0.972 0.188-2.103 1.016-2.662 0.819-0.553 1.908-0.613 2.86-0.477 1.073 0.151 2.107 0.549 2.979 1.198 1.178 0.872 1.982 2.262 2.266 3.688 0.258 1.298-0.102 2.781-0.969 3.793-0.808 0.938-2.06 1.143-3.115 0.474-0.367-0.235-0.713-0.56-0.972-0.901-0.102-0.134-0.252-0.379-0.29-0.471-0.034-0.081-0.058-0.166-0.074-0.254 0.02 0.099 0-0.021 0-0.038-0.005-0.126-0.01 0.001 0.007-0.066 0.007-0.025 0.005-0.019 0.031-0.048 0 0 0.09-0.055 0.103-0.058 0.264-0.099 0.56-0.083 0.836-0.069 0.59 0.036 1.152 0.285 1.646 0.594 1.076 0.675 1.881 1.82 2.145 3.059 0.212 0.996-0.07 2.793-1.4 2.682-0.657-0.055-1.317-0.423-1.923-0.656-0.62-0.236-1.281-0.35-1.891-0.616-0.551-0.238-0.981-0.587-1.247-1.13-0.24-0.49-0.378-1.161-0.279-1.705 0.152-0.854 0.855-1.136 1.611-0.861 0.942 0.344 1.38 1.355 1.513 2.257 0.155 1.06 0.013 2.213-0.341 3.219-0.157 0.444-0.391 0.874-0.727 1.207-0.12 0.117-0.295 0.245-0.434 0.301-0.206 0.086-0.209 0.076-0.448 0.07-0.495-0.015-1.012-0.164-1.498-0.302-0.565-0.162-1.121-0.359-1.668-0.575-0.43-0.171-0.837-0.335-1.169-0.667-0.509-0.504-0.759-1.23-0.8-1.936-0.028-0.465 0.05-0.98 0.236-1.41 0.133-0.307 0.344-0.586 0.565-0.726 0.084-0.054 0.093-0.054 0.122-0.065 0.029-0.009 0.217-0.045 0.112-0.035 0.031-0.001 0.217 0.01 0.107-0.008 0.029 0.007 0.198 0.062 0.108 0.021 0.115 0.053 0.178 0.109 0.21 0.152 0.117 0.152 0.158 0.27 0.207 0.445 0.195 0.723 0.085 1.707-0.707 1.952-0.841 0.265-1.811 0.036-2.672 0.031-0.58-0.002-0.58 0.896 0 0.899 1.101 0.005 2.31 0.28 3.339-0.238 1.068-0.537 1.223-2.139 0.818-3.142-0.35-0.872-1.256-1.283-2.099-0.791-1.007 0.591-1.321 2.021-1.234 3.094 0.062 0.77 0.337 1.516 0.817 2.123 0.359 0.452 0.782 0.732 1.304 0.958 1.046 0.455 2.155 0.854 3.282 1.043 0.43 0.072 0.888 0.13 1.304-0.029 0.503-0.189 0.883-0.546 1.2-0.971 0.675-0.904 0.912-2.133 0.991-3.234 0.071-1.008-0.002-2.151-0.526-3.04-0.539-0.912-1.545-1.721-2.662-1.601-1.083 0.117-1.712 1.012-1.785 2.047-0.092 1.312 0.575 2.664 1.731 3.295 0.581 0.314 1.234 0.486 1.866 0.67 0.692 0.197 1.339 0.533 2.032 0.733 0.611 0.177 1.281 0.194 1.834-0.166 0.592-0.389 0.914-1.102 1.066-1.771 0.591-2.601-1.584-5.475-4.11-6.003-0.869-0.178-2.52-0.133-2.421 1.144 0.075 0.958 0.946 1.786 1.686 2.3 1.067 0.744 2.527 0.787 3.605 0.057 1.131-0.767 1.747-2.141 1.953-3.453 0.447-2.887-1.605-5.768-4.187-6.852-1.86-0.782-4.646-0.997-6.048 0.754-0.747 0.936-0.983 2.255-0.566 3.38 0.422 1.136 1.39 1.964 2.425 2.542 1.037 0.577 2.211 0.934 3.392 1.039 0.953 0.086 1.669-0.43 1.99-1.314 0.59-1.625-0.282-4.176-2.107-4.567-0.677-0.147-1.399 0.022-1.843 0.581-0.471 0.594-0.613 1.355-0.673 2.093-0.149 1.85 0.264 3.792 0.785 5.559 0.242 0.816 0.534 1.627 0.908 2.396 0.246 0.507 0.553 1.085 1.043 1.394 0.249 0.157 0.582 0.002 0.66-0.27 0.467-1.631-0.425-3.238-1.223-4.605-0.287-0.49-0.628-0.951-1.111-1.264-0.496-0.321-1.121-0.378-1.696-0.361-1.281 0.043-2.679 0.314-3.67 1.188-0.975 0.863-0.695 2.337-0.248 3.401 0.407 0.974 1.08 1.954 2.2 2.099 0.615 0.078 1.192-0.238 1.571-0.705 1.019-1.26 1.175-3.165 1.19-4.716 0.02-1.693-0.18-3.586-1.018-5.093-0.314-0.564-0.787-1.085-1.428-1.27-0.946-0.269-1.876 0.21-2.576 0.81-0.83 0.711-1.45 1.68-1.97 2.633-0.508 0.937-0.932 1.936-1.238 2.956-0.114 0.378-0.2 0.758-0.248 1.151-0.066 0.534 0.011 1.098 0.092 1.626 0.204 1.354 0.701 2.698 1.414 3.865 0.334 0.547 0.739 1.064 1.224 1.482 0.576 0.502 1.292 0.824 2.012 1.057 1.546 0.5 3.231 0.359 4.765-0.112 1.57-0.481 3.061-1.32 4.356-2.325 1.176-0.911 2.053-2.145 2.236-3.646 0.172-1.413-0.271-2.808-0.85-4.078-0.596-1.31-1.35-2.583-2.518-3.458-1.132-0.851-2.49-1.156-3.883-0.968-0.646 0.088-1.319 0.283-1.865 0.649-0.477 0.319-0.854 0.759-1.156 1.245-0.644 1.03-0.911 2.28-1.015 3.477-0.099 1.166 0.002 2.374 0.44 3.468 0.492 1.225 1.363 2.307 2.528 2.945 1.154 0.635 2.473 0.68 3.678 0.168 1.177-0.496 2.136-1.549 2.559-2.749 0.358-1.016 0.281-2.167-0.065-3.171-0.678-1.961-2.553-3.726-4.748-3.5-1.084 0.114-2.324 0.701-2.854 1.697-0.538 1.011-0.376 2.278 0.057 3.294 0.417 0.983 1.229 1.947 2.327 2.15 1.363 0.254 2.33-1.111 2.953-2.109 0.909-1.457 1.058-3.13 0.687-4.786-0.332-1.491-1.03-2.881-2.136-3.944-2.016-1.943-5.177-2.706-7.746-1.44-1.113 0.55-1.73 1.75-2.099 2.876-0.387 1.182-0.524 2.43-0.677 3.659-0.17 1.362-0.365 2.723-0.333 4.1 0.031 1.305 0.266 2.799 1.178 3.8 0.772 0.85 2.125 0.979 3.199 0.933 1.162-0.051 2.39-0.326 3.406-0.906 2.132-1.217 2.087-4.254 0.891-6.109-0.705-1.097-1.786-1.635-3.048-1.849-1.039-0.173-2.218-0.045-2.924 0.824-0.675 0.828-0.722 1.937-0.571 2.95 0.187 1.265 0.769 2.497 1.517 3.522 1.484 2.038 3.883 3.342 6.435 3.161 1.248-0.088 2.451-0.531 3.48-1.241 1.211-0.834 2.104-2.01 2.854-3.264 1.537-2.568 2.27-5.709 1.055-8.554-0.572-1.343-1.586-2.516-2.834-3.273-1.164-0.704-2.531-1.024-3.881-1.089-1.377-0.065-2.784 0.171-4.076 0.64-1.34 0.485-2.628 1.207-3.407 2.436-0.827 1.305-0.728 2.826-0.104 4.186 0.369 0.805 1.075 1.596 2.042 1.437 0.78-0.125 1.293-0.854 1.563-1.538 0.325-0.818 0.266-1.771-0.139-2.548-0.503-0.963-1.611-1.533-2.654-1.657-1.097-0.131-2.191 0.274-3.062 0.925-2.051 1.533-3.297 4.642-1.532 6.847 0.154 0.189 0.477 0.158 0.636 0 0.186-0.193 0.152-0.45-0.001-0.64z" fill="#E6BC6E"/>
			<path d="m16.269 27.184c0.614-0.669 1.228-1.338 1.975-1.863 0.111-0.077 0.189-0.241 0.044-0.331-0.146-0.091-0.362-0.045-0.496 0.048-0.79 0.556-1.445 1.26-2.097 1.968-0.105 0.117-0.067 0.262 0.084 0.31 0.162 0.049 0.374-0.006 0.49-0.132z" fill="#BD1818"/>
			<path d="m17.32 29.129c0.967-1.068 2.171-1.879 3.465-2.505 0.068-0.032 0.303-0.15 0.189-0.26-0.104-0.1-0.344-0.05-0.456 0.004-1.438 0.693-2.763 1.574-3.84 2.761-0.114 0.127 0.097 0.186 0.183 0.186 0.165-0.001 0.347-0.059 0.459-0.186z" fill="#239E56"/>
			<path d="m26.144 30.932c0.22-1.975-1.107-3.608-2.353-4.979-0.135-0.148-0.789 0.097-0.65 0.249 1.198 1.322 2.527 2.931 2.314 4.839-0.022 0.219 0.667 0.079 0.689-0.109z" fill="#239E56"/>
			<path d="m26.974 24.234c0.653 0.877-0.259 1.874-0.776 2.56-0.101 0.133 0.083 0.189 0.184 0.189 0.156 0.002 0.36-0.053 0.459-0.185 0.594-0.787 1.512-1.847 0.779-2.829-0.135-0.181-0.806 0.054-0.646 0.265z" fill="#BD1818"/>
			<path d="m21.543 31.921c0.302-1.259 1.239-2.242 2.154-3.105 0.342-0.321-0.203-0.573-0.464-0.328-1.038 0.976-2.051 2.056-2.395 3.479-0.084 0.347 0.629 0.267 0.705-0.046z" fill="#239E56"/>
			<path d="m31.459 29.468c-0.294 0.673-1.069 0.884-1.729 1.015-0.695 0.142-1.419 0.16-2.127 0.16-0.161 0-0.365 0.047-0.456 0.201-0.081 0.141 0.069 0.246 0.2 0.246 0.883 0 1.765-0.047 2.633-0.23 0.804-0.172 1.777-0.535 2.133-1.349 0.148-0.337-0.549-0.282-0.654-0.043z" fill="#239E56"/>
			<path d="m24.84 34.467c0.891 0.111 1.767 0.07 2.611-0.244 0.82-0.305 1.494-0.921 2.051-1.582 0.282-0.334-0.381-0.432-0.58-0.197-0.478 0.566-1.016 1.062-1.706 1.353-0.668 0.281-1.428 0.263-2.133 0.176-0.335-0.042-0.711 0.435-0.243 0.494z" fill="#239E56"/>
			<path d="m19.974 23.514c-1.298 1.39-1.196 3.399-0.734 5.115 0.466 1.74 1.315 3.408 2.344 4.879 0.111 0.158 0.783-0.062 0.649-0.252-1-1.434-1.802-3.051-2.278-4.734-0.472-1.664-0.611-3.67 0.656-5.03 0.113-0.119-0.097-0.157-0.175-0.155-0.159 0.004-0.35 0.058-0.462 0.177z" fill="#239E56"/>
			<path d="m29.121 24.316c-2.574 0.293-5.423-0.323-7.665-1.617-0.155-0.09-0.354-0.073-0.499 0.04-0.108 0.082-0.188 0.283-0.033 0.372 1.217 0.701 2.548 1.162 3.917 1.466 1.376 0.306 2.82 0.426 4.224 0.267 0.156-0.017 0.36-0.107 0.38-0.288 0.018-0.17-0.181-0.255-0.324-0.24z" fill="#239E56"/>
			<path d="m23.73 22.019c-0.311 0.79-1.32 1.049-2.039 1.326-0.14 0.052-0.258 0.238-0.16 0.375 0.112 0.155 0.325 0.121 0.475 0.062 0.891-0.338 2.013-0.696 2.393-1.667 0.148-0.385-0.55-0.402-0.669-0.096z" fill="#BD1818"/>
			<path d="m23.688 32.062c0.35-0.845 0.984-1.518 1.833-1.869 0.057-0.024 0.239-0.146 0.086-0.18-0.159-0.035-0.341 0.031-0.484 0.09-0.954 0.395-1.722 1.125-2.119 2.082-0.049 0.118 0.61 0.054 0.684-0.123z" fill="#239E56"/>
			<path d="m28.805 25.632c0.13 0.639 0.28 1.284 0.122 1.933-0.053 0.216 0.64 0.106 0.69-0.102 0.164-0.678 0.018-1.35-0.118-2.018-0.041-0.201-0.737-0.031-0.694 0.187z" fill="#BD1818"/>
		<path d="m45.317 14.632c0 0.767-0.62 1.388-1.386 1.388h-4.284c-0.765 0-1.386-0.621-1.386-1.388v-0.637c0-0.767 0.621-1.387 1.386-1.387h4.284c0.766 0 1.386 0.62 1.386 1.387v0.637z" fill="#CDE0EB"/>
			<path d="m40.766 43.618c-0.248 0-0.447-0.202-0.447-0.448v-31.34c0-0.249 0.199-0.449 0.447-0.449s0.45 0.2 0.45 0.449v31.34c0 0.246-0.202 0.448-0.45 0.448z" fill="#DC8129"/>
			<path d="m42.757 43.618c-0.248 0-0.449-0.202-0.449-0.448v-31.34c0-0.249 0.201-0.449 0.449-0.449 0.247 0 0.447 0.2 0.447 0.449v31.34c0 0.246-0.2 0.448-0.447 0.448z" fill="#DC8129"/>
</svg>
