<?xml version="1.0" encoding="UTF-8" standalone="no"?>
<!-- Generator: Adobe Illustrator 16.0.0, SVG Export Plug-In . SVG Version: 6.00 Build 0)  -->
<!DOCTYPE svg  PUBLIC '-//W3C//DTD SVG 1.1//EN'  'http://www.w3.org/Graphics/SVG/1.1/DTD/svg11.dtd'>
<svg id="Layer_1" xmlns="http://www.w3.org/2000/svg" xml:space="preserve" height="55px" viewBox="0 0 55 55" width="55px" version="1.1" y="0px" x="0px" xmlns:xlink="http://www.w3.org/1999/xlink" enable-background="new 0 0 55 55">
	<circle cy="27.5" cx="27.5" r="27.5" fill="#3C3C3B"/>
		<path d="m11.243 25.409s-2.661-2.926-1.464-5.054c1.196-2.128 13.17-6.651 19.49-6.189 6.318 0.466 11.441 7.786 13.636 9.979 2.196 2.195 6.453 6.054 4.989 8.25-1.464 2.193-8.248 2.193-11.109 3.326-2.86 1.129-9.844 5.055-10.178 5.32-0.332 0.266-4.589 2.727-7.316 0.666-2.728-2.064-2.926-6.852-3.726-8.448-0.797-1.595-3.458-6.675-4.322-7.85z" fill="#FDDB9C"/>
		<path d="m20.621 20.088s-1.33-0.268-2.195 0.598c-0.864 0.865-1.597 2.063-2.261 3.061-0.666 0.998-0.799 2.394-0.732 3.061 0.066 0.665-0.997 1.995-0.531 2.726 0.465 0.73 0 3.791 1.196 3.991 1.197 0.2 2.262 0.4 2.728 0.731 0.466 0.332 2.062 1.264 2.728 1.396 0.665 0.134 3.725-0.066 4.522 0.399 0.8 0.466 1.853 0 2.757 0 0.902 0 2.033-1.131 2.5-1.196 0.465-0.066 1.329-0.732 1.928-0.664 0.6 0.064 2.461-0.667 2.728-1.266 0.267-0.598 1.796-3.258 2.329-3.258 0.532 0 1.463-0.799 1.463-1.864 0-1.064-0.467-4.589-1.064-4.856-0.598-0.266-2.461-2.793-3.393-2.46-0.932 0.332-2.927-1.795-3.725-1.729s-3.312-0.201-4.317 0.266c-1.005 0.466-3.001-0.266-3.998 0-1 0.265-2.728 0.664-2.663 1.064z" fill="#683C11"/>
		<path d="m27.28 25.743s-1.005-1.665-2.668-1.332-2.793 2.661-2.461 3.459c0 0 1.745-1.862 2.535-1.396 0.792 0.465 2.868 0.731 2.594-0.731z" fill="#A4C738"/>
		<path d="m26.675 23.945s0.788-2.327 2.157-2.66c1.367-0.332 3.563 0.865 3.896 1.795 0 0-2.461-0.265-3.027 0.067-0.564 0.334-1.562 1.73-3.026 0.798z" fill="#A4C738"/>
		<path d="m27.305 23.481s-0.896-1.93-1.762-1.862c-0.864 0.065-2.261-1.598-1.995-1.663 0.266-0.067-1.197 2.127-0.033 3.525 1.164 1.396 3.822 2.194 3.79 0z" fill="#A4C738"/>
		<path d="m20.688 24.261s-0.132-1.313-0.863-0.848c-0.733 0.467-0.6 1.598-0.334 1.929 0.265 0.333 1.441-0.335 1.197-1.081z" fill="#F8FCFF"/>
		<path d="m28.006 28.67s-1.53-0.601-2.262 0c-0.732 0.598 0.465 1.463 0.931 1.529 0.466 0.065 2.128-0.332 1.331-1.529z" fill="#F8FCFF"/>
		<path d="m30.865 24.843s-1.064-0.41-1.529 1.276c-0.465 1.685 2.062-0.111 1.529-1.276z" fill="#F8FCFF"/>
</svg>
