<?xml version="1.0" encoding="UTF-8" standalone="no"?>
<!-- Generator: Adobe Illustrator 16.0.0, SVG Export Plug-In . SVG Version: 6.00 Build 0)  -->
<!DOCTYPE svg  PUBLIC '-//W3C//DTD SVG 1.1//EN'  'http://www.w3.org/Graphics/SVG/1.1/DTD/svg11.dtd'>
<svg id="Layer_1" xmlns="http://www.w3.org/2000/svg" xml:space="preserve" height="115px" viewBox="0 0 115 115" width="115px" version="1.1" y="0px" x="0px" xmlns:xlink="http://www.w3.org/1999/xlink" enable-background="new 0 0 115 115">
<path d="m108.23 30.704c-0.051-1.929-1.26-5.767-5.459-6.487-1.775-0.305-9.35-1.316-18.119-2.489-9.943-1.329-23.561-3.149-24.627-3.426l-0.299-0.098c-1.348-0.438-3.851-1.253-4.49-3.169-0.756-2.267-2.32-6.207-4.301-7.128-1.193-0.559-12.023-2.176-18.373-3.091l-0.133-0.014c-0.154-0.007-3.865-0.171-5.621 3.135-0.355 0.67-0.668 1.359-0.973 2.026-0.404 0.888-1.002 2.201-1.389 2.558-1.451-0.177-5.396-0.207-7.531 1.672-0.971 0.854-1.469 1.995-1.441 3.3 0.042 2 0.037 5.167 0.023 7.613l-3.311-0.648c-0.111-0.022-0.225-0.035-0.34-0.027-3.773 0.13-4.969 4.051-5.074 6.105-0.006 0.091-0.002 0.182 0.01 0.271 0.275 2.114 6.756 51.805 6.91 52.9 0.27 1.869 2.332 2.746 2.744 2.903 0.049 0.019 0.1 0.035 0.152 0.049l89.056 23.492c0.127 0.033 0.254 0.05 0.383 0.05 0.006-0.001 0.014-0.001 0.02 0 0.118 0 0.231-0.017 0.342-0.043 0.11 0.026 0.224 0.043 0.342 0.043 0.828 0 1.5-0.672 1.5-1.5l0.01-77.996zm-89.757-13.276c-0.01-0.42 0.117-0.714 0.424-0.983 1.115-0.981 3.979-1.13 5.268-0.935 2.293 0.348 3.361-2.021 4.4-4.305 0.281-0.618 0.572-1.259 0.893-1.861 0.783-1.475 2.461-1.546 2.764-1.547 7.75 1.118 16.492 2.492 17.434 2.822 0.473 0.271 1.666 2.162 2.734 5.363 1.115 3.352 4.689 4.515 6.406 5.073l0.279 0.091c0.797 0.267 7.291 1.163 25.178 3.554 8.377 1.12 16.289 2.178 18.01 2.473 2.762 0.474 2.955 3.3 2.969 3.57v63.496c-3.216-20.103-8.771-54.889-9.426-59.395-0.875-5.999-6.682-8.205-9.549-8.521-1.256-0.211-30.82-5.17-35.888-5.403-5.188-0.256-7.25 1.785-7.738 2.364-0.449 0.449-3.352 3.358-4.785 4.902-0.609 0.656-1.715 0.754-2.318 0.754-0.361 0-0.621-0.035-0.631-0.035v0.001l-16.401-3.213c0.014-2.521 0.025-6.072-0.021-8.265zm-1.029 66.354c-0.303-0.13-0.719-0.405-0.783-0.5-0.146-1.043-6.469-49.531-6.883-52.705 0.059-0.562 0.4-2.948 2.027-3.139l22.561 4.419c0.051 0.009 0.512 0.082 1.16 0.082 1.336 0 3.203-0.297 4.518-1.713 1.484-1.599 4.729-4.843 4.762-4.876 0.057-0.057 0.076-0.075 0.123-0.141 0.012-0.014 1.314-1.469 5.301-1.295 4.889 0.226 35.224 5.314 35.607 5.377 0.256 0.03 6.244 0.794 7 5.983 0.828 5.702 9.453 59.58 11.346 71.387l-86.736-22.878z" fill="#2E72B8"/>
</svg>
