<?xml version="1.0" encoding="UTF-8" standalone="no"?>
<!-- Generator: Adobe Illustrator 16.0.0, SVG Export Plug-In . SVG Version: 6.00 Build 0)  -->
<!DOCTYPE svg  PUBLIC '-//W3C//DTD SVG 1.1//EN'  'http://www.w3.org/Graphics/SVG/1.1/DTD/svg11.dtd'>
<svg id="Layer_1" xmlns="http://www.w3.org/2000/svg" xml:space="preserve" height="115px" viewBox="0 0 115 115" width="115px" version="1.1" y="0px" x="0px" xmlns:xlink="http://www.w3.org/1999/xlink" enable-background="new 0 0 115 115">
<path d="m106.47 38.232c-2.609-10.985-9.227-20.384-18.633-26.464-8.605-5.562-18.885-7.936-28.207-6.521-17.248 2.621-23.842 10.36-24.651 11.389-0.358 0.344-0.71 0.696-1.054 1.062-6.355 6.757-9.625 16.774-8.971 27.483 0.528 8.646 3.469 16.903 8 23.936-0.574 0.107-1.101 0.359-1.545 0.749-0.421 0.368-3.246 3.36-6.776 7.134-0.005 0.005-0.01 0.01-0.014 0.015-6.198 6.623-14.567 15.65-15.974 17.167-0.1 0.107-0.182 0.229-0.246 0.36-1.104 2.256-2.109 7.611 1.982 11.73 3.186 3.207 6.227 3.88 8.219 3.88 1.402 0 2.295-0.329 2.461-0.396 0.176-0.07 0.338-0.174 0.475-0.304l24.631-23.356c0.037-0.035 0.072-0.072 0.105-0.11 0.052-0.062 0.712-0.878 0.988-2.17 0.011-0.026 0.018-0.055 0.028-0.08 6.2 4.066 13.199 6.452 20.353 6.452 7.86 0 14.69-2.455 19.93-7.122 2.176-1.549 4.351-3.17 5.146-3.999 0.123-0.129 0.297-0.301 0.516-0.516 15.277-15.072 15.637-30.244 13.237-40.317zm-66.326-19.04c4.57-4.854 10.748-7.421 17.863-7.421 0.279 0 0.562 0.004 0.846 0.012 18.049 0.502 34.686 17.422 36.328 36.948 0.922 10.95-1.551 20.223-6.963 26.109-4.387 4.771-10.693 7.293-18.238 7.293-18.766 0-36.322-18.188-37.574-38.924-0.571-9.433 2.249-18.187 7.738-24.017zm-1.997 70.377c-8.967-2.286-10.579-8.97-10.862-11.011 0.835-0.891 1.612-1.721 2.314-2.468 0.032 0.182 0.058 0.36 0.101 0.546 0.525 2.253 1.875 4.556 3.803 6.481 2.176 2.177 4.821 3.593 7.284 3.948l-2.64 2.504zm-14.707 13.951c-8.91-3.065-8.468-10.923-8.443-11.281 0.012-0.153-0.007-0.3-0.039-0.441 3.279-3.532 6.791-7.308 9.866-10.602 0.287 0.941 0.709 2.022 1.339 3.148 1.437 2.569 4.218 5.801 9.475 7.608l-12.198 11.568zm15.148-27.158c0.535 0.573 1.079 1.136 1.638 1.681l-1.201 1.088c-0.289 0.053-0.76 0.043-1.131-0.404-0.219-0.261-0.307-0.773-0.316-1.194l1.01-1.171zm5.421 7.085c-0.473 0.473-1.158 0.713-2.037 0.713-1.965 0-4.398-1.212-6.348-3.163-1.514-1.514-2.609-3.352-3.004-5.043-0.197-0.846-0.389-2.405 0.551-3.343 0.207-0.207 0.461-0.36 0.748-0.478 0.134 0.032 0.261 0.071 0.328 0.106 0.585 0.455 1.407 1.108 2.327 1.864l-1.603 1.854c-0.189 0.22-0.312 0.49-0.352 0.778-0.033 0.242-0.285 2.41 0.969 3.911 0.961 1.152 2.168 1.504 3.189 1.504 0.613 0 1.16-0.126 1.549-0.281 0.168-0.066 0.32-0.162 0.453-0.282l1.669-1.513c0.522 0.449 1.052 0.887 1.589 1.312 0.293 0.599 0.371 1.115 0.34 1.529-0.101 0.201-0.219 0.384-0.368 0.532zm-25.405 23.703c-1.422 0-3.633-0.52-6.09-2.993-3.232-3.255-1.863-7.229-1.494-8.121 0.386-0.416 0.783-0.845 1.185-1.278 0.54 3.162 2.431 8.261 8.831 11.037l-1.301 1.233c-0.23 0.05-0.621 0.12-1.131 0.12zm9.348-62.152c-0.545-8.934 1.84-17.3 6.576-23.375-3.764 6.03-5.605 13.683-5.117 21.768 1.342 22.237 20.299 41.743 40.568 41.743 5.463 0 10.356-1.214 14.48-3.541-1.331 0.932-2.67 1.849-3.803 2.611-3.791 1.963-8.179 2.984-13.012 2.984-19.424 0-38.342-20.109-39.692-42.19zm67.475 26.672c2.042-5.063 3.036-10.931 2.919-17.306 0.047-1.907-0.005-3.868-0.175-5.885-1.766-20.974-19.733-39.152-39.234-39.694-0.712-0.021-1.413-0.01-2.108 0.015 1.038-0.215 2.12-0.412 3.257-0.585 16.789-2.56 38.188 8.46 43.471 30.711 1.96 8.275 1.89 20.291-8.133 32.744z" fill="#2E72B8"/>
</svg>
